# Blender 3.6.5
# www.blender.org
mtllib intphys.mtl
o consoleroom_physics
v 26.297480 78.695061 -367.212158
v 46.510262 92.370094 -387.213257
v 26.297480 78.695061 -387.213257
v 46.510262 92.370094 -367.212158
v 46.510445 -25.955652 -367.212158
v 26.297640 -25.955685 -367.212158
v 46.510445 -25.955652 -387.213257
v 26.297640 -25.955685 -387.213257
v -19.801220 78.694992 -387.213257
v -19.801220 78.694992 -367.212158
v -40.014042 92.369965 -367.212158
v -40.014042 92.369965 -387.213257
v 48.365772 116.899414 -303.853424
v 62.040749 130.574432 -387.806885
v 48.365772 116.899414 -387.806885
v 62.040749 130.574432 -303.853424
v 62.040989 -25.955629 -303.853424
v 62.040989 -25.955629 -387.806885
v 48.365993 -25.955650 -387.806885
v 48.365993 -25.955650 -303.853424
v -40.013859 -25.955788 -387.213257
v -19.801060 -25.955753 -387.213257
v -40.013859 -25.955788 -367.212158
v -40.014042 92.369965 -387.213257
v -19.801220 78.694992 -367.212158
v -19.801220 78.694992 -387.213257
v -19.801060 -25.955753 -367.212158
v -41.869629 116.899277 -303.853424
v -41.869629 116.899277 -387.806885
v -55.544647 130.574249 -303.853424
v -55.544651 130.574249 -387.806885
v -41.869408 -25.955790 -387.806885
v -41.869408 -25.955790 -303.853424
v -41.869629 116.899277 -303.853424
v -41.869629 116.899277 -387.806885
v -55.544647 130.574249 -303.853424
v -55.544407 -25.955811 -387.806885
v -55.544407 -25.955811 -303.853424
v -91.956215 0.477434 -149.309845
v -91.956177 -25.218740 -192.986160
v -91.956177 -24.434238 -149.309845
v -91.956139 -52.366219 -192.986160
v -41.956230 0.477510 -149.309845
v -41.956192 -24.434162 -149.309845
v -41.956146 -52.366142 -192.986160
v -41.956184 -25.218662 -192.986160
v 149.600357 0.000230 149.600357
v -149.600357 -0.000230 -149.600357
v -149.600357 -0.000230 149.600357
v 149.600357 0.000230 -149.600357
v 149.600388 -24.911171 149.600357
v -149.600311 -24.911629 149.600357
v -149.600311 -24.911629 -149.600357
v 149.600388 -24.911171 -149.600357
v 469.074829 -26.034578 270.820374
v 469.074829 -26.034578 -270.820374
v 0.000065 -26.035299 541.640869
v 0.000040 -26.035299 -541.640869
v -469.074615 -71.903671 270.820465
v 0.000135 -71.902946 541.640869
v -469.074707 -26.036020 270.820465
v -469.074738 -26.036020 -270.820404
v 469.074890 -71.902222 270.820374
v -469.074677 -71.903671 -270.820404
v 0.000111 -71.902946 -541.640869
v 469.074890 -71.902222 -270.820374
v 412.462952 -32.756863 222.706009
v 412.462402 334.723694 -222.706055
v 412.462372 334.723694 222.706009
v 412.462952 -32.756863 -222.706055
v 385.737671 334.723663 -222.706055
v 385.737640 334.723663 222.706009
v 385.738220 -32.756908 222.706009
v 385.738220 -32.756908 -222.706055
v 0.000050 -32.757500 445.412048
v 13.362000 -32.757481 468.556305
v -0.000514 334.723053 445.412048
v 13.361435 334.723083 468.556305
v 399.099640 334.723663 245.850296
v 399.100220 -32.756886 245.850296
v -13.361900 -32.757519 468.556305
v -13.362465 334.723022 468.556305
v -385.738708 334.722443 222.705978
v -385.738129 -32.758091 222.705978
v -399.100098 -32.758114 245.850235
v -399.100677 334.722412 245.850235
v -412.463440 334.722412 222.705978
v -412.463409 334.722412 -222.705978
v -412.462860 -32.758137 222.705978
v -412.462860 -32.758137 -222.705978
v -385.738678 334.722443 -222.705978
v -385.738129 -32.758091 -222.705978
v -13.361948 -32.757519 -468.556305
v -399.100098 -32.758114 -245.850250
v -399.100647 334.722412 -245.850250
v -13.362494 334.723022 -468.556305
v -0.000539 334.723053 -445.412048
v -0.000000 -32.757500 -445.412048
v -385.738678 334.722443 -222.705963
v -0.000546 334.723053 -445.412048
v 13.361411 334.723083 -468.556305
v 13.361957 -32.757481 -468.556305
v 399.099609 334.723663 -245.850311
v 399.100159 -32.756886 -245.850311
v 385.737640 362.802032 -222.706055
v 385.737610 362.802032 222.706009
v -0.000557 362.801453 445.412048
v -0.000582 362.801453 -445.412048
v -385.738708 362.800842 -222.705978
v -385.738739 362.800842 222.705978
v -42.995220 -4.247941 -159.158737
v -40.586792 -4.247938 -141.668518
v -42.995293 43.219860 -159.158737
v -40.586868 43.219864 -141.668518
v 2.499882 -4.247871 -155.449448
v 2.499809 43.219929 -155.449448
v 2.795057 -4.247871 -173.804428
v 2.794984 43.219929 -173.804428
v -124.874733 43.219734 120.921852
v -2.499942 43.219921 155.449448
v -111.687088 43.219753 108.151672
v -2.795116 43.219921 173.804428
v -2.499869 -4.247879 155.449448
v -2.795043 -4.247879 173.804428
v -124.874664 -4.248067 120.921852
v -111.687019 -4.248047 108.151672
v 108.151604 43.220089 111.687019
v 108.151680 -4.247709 111.687019
v 120.921875 -4.247690 124.874664
v 120.921806 43.220108 124.874664
v 173.804428 -4.247608 2.795050
v 155.449448 -4.247636 2.499875
v 111.687057 -4.247703 -108.151672
v 124.874672 -4.247684 -120.921852
v 124.874596 43.220116 -120.921852
v 111.686981 43.220097 -108.151672
v 173.804352 43.220192 2.795050
v 155.449387 43.220165 2.499875
v -77.157478 43.219807 -125.471832
v -117.378899 43.219746 -123.339897
v -104.817894 43.219765 -110.242882
v -104.817818 -4.248037 -110.242882
v -77.157394 -4.247993 -125.471832
v -87.982811 43.219788 -139.524399
v -87.982742 -4.248011 -139.524399
v -117.378822 -4.248056 -123.339897
v -155.449509 43.219685 -2.499875
v -173.804489 43.219658 -2.795050
v -155.449448 -4.248114 -2.499875
v -173.804413 -4.248143 -2.795050
v 2.499809 43.219929 -155.449448
v 2.794984 43.219929 -173.804428
v 2.499882 -4.247871 -155.449448
v -155.449448 -4.248114 -2.499875
v -173.804489 43.219658 -2.795050
v -173.804413 -4.248143 -2.795050
vn -0.3015 -0.3015 0.9045
vn 0.5773 0.5774 -0.5774
vn -0.3015 -0.3015 -0.9045
vn 0.5773 0.5774 0.5774
vn 0.5774 -0.5773 0.5774
vn -0.5773 -0.5774 0.5774
vn 0.5774 -0.5773 -0.5774
vn -0.5773 -0.5774 -0.5774
vn -0.1575 -0.5139 -0.8433
vn -0.2235 -0.7292 0.6467
vn -0.5774 0.5773 0.5774
vn -0.8383 0.0923 -0.5373
vn 0.5773 0.5774 0.5773
vn 0.5604 0.8283 -0.0000
vn 0.6963 0.3696 0.6152
vn 0.8833 0.4689 -0.0000
vn 0.1278 -0.7450 0.6547
vn 0.1278 -0.7450 -0.6547
vn -0.7735 0.3204 0.5469
vn -0.5774 0.5773 -0.5774
vn 0.3922 0.3922 0.8321
vn 0.3922 0.3922 -0.8321
vn -0.3204 0.7735 0.5469
vn -0.5544 0.7224 0.4132
vn -0.6106 0.3932 -0.6875
vn -0.6133 -0.3793 0.6928
vn -0.5532 -0.7307 -0.4001
vn 0.5544 0.7224 0.4132
vn 0.6133 -0.3793 0.6928
vn 0.5532 -0.7307 -0.4001
vn 0.6106 0.3932 -0.6875
vn 0.5774 -0.5773 0.5773
vn 0.6862 0.6100 0.3962
vn 0.6862 0.6100 -0.3962
vn -0.0000 0.6100 0.7924
vn -0.0000 0.6100 -0.7924
vn -0.6862 -0.6100 0.3962
vn -0.0000 -0.6100 0.7924
vn -0.6862 0.6100 0.3962
vn -0.6862 0.6100 -0.3962
vn 0.6862 -0.6100 0.3962
vn -0.6862 -0.6100 -0.3962
vn -0.0000 -0.6100 -0.7924
vn 0.6862 -0.6100 -0.3962
vn 0.7206 0.5547 -0.4160
vn 0.7206 0.5547 0.4160
vn -0.2977 -0.9391 -0.1719
vn -0.2977 -0.9391 0.1719
vn -0.0000 -0.9391 -0.3437
vn -0.2113 -0.5773 0.7887
vn -0.0000 0.5547 0.8320
vn -0.2113 0.5773 0.7887
vn 0.7887 0.5774 0.2113
vn 0.7887 -0.5773 0.2113
vn 0.2113 -0.5773 0.7887
vn 0.2113 0.5773 0.7887
vn -0.7206 0.5547 0.4160
vn 0.2977 -0.9391 -0.1719
vn -0.7887 -0.5774 0.2113
vn -0.7887 0.5773 0.2113
vn -0.5774 0.5773 -0.5773
vn -0.2551 -0.1700 -0.9519
vn 0.2977 -0.9391 0.1719
vn 0.2113 -0.5773 -0.7887
vn -0.7887 -0.5774 -0.2113
vn -0.7887 0.5773 -0.2113
vn 0.2113 0.5773 -0.7887
vn 0.6968 -0.1700 -0.6968
vn -0.0000 -0.9391 0.3437
vn -0.2113 0.5773 -0.7887
vn -0.2113 -0.5773 -0.7887
vn 0.7887 0.5774 -0.2113
vn 0.7887 -0.5773 -0.2113
vn -0.6850 -0.5870 -0.4316
vn -0.4384 -0.5688 0.6959
vn -0.6850 0.5870 -0.4316
vn -0.4384 0.5688 0.6959
vn 0.3754 -0.4997 0.7806
vn 0.2810 0.7613 0.5843
vn 0.0383 -0.6359 -0.7708
vn 0.3595 0.7977 -0.4842
vn -0.5577 0.6303 0.5401
vn 0.0096 0.8042 -0.5943
vn 0.4270 0.8042 -0.4135
vn -0.0125 0.6303 0.7763
vn 0.0096 -0.8042 -0.5943
vn -0.0125 -0.6303 0.7763
vn -0.5577 -0.6303 0.5401
vn 0.4270 -0.8042 -0.4135
vn -0.4135 0.8042 -0.4270
vn -0.4135 -0.8042 -0.4270
vn 0.5401 -0.6303 0.5577
vn 0.5401 0.6303 0.5577
vn 0.7763 -0.6303 0.0125
vn -0.5943 -0.8042 -0.0096
vn -0.4270 -0.8042 0.4135
vn 0.5577 -0.6303 -0.5401
vn 0.5577 0.6303 -0.5401
vn -0.4270 0.8042 0.4135
vn 0.7763 0.6303 0.0125
vn -0.5943 0.8042 -0.0096
vn 0.8045 0.5697 0.1677
vn -0.5586 0.6436 -0.5232
vn 0.4530 0.7837 0.4249
vn 0.4530 -0.7837 0.4249
vn 0.8045 -0.5697 0.1677
vn 0.1654 0.5858 -0.7934
vn 0.1654 -0.5858 -0.7934
vn -0.5586 -0.6436 -0.5232
vn 0.5886 0.8082 0.0185
vn -0.6817 0.5595 -0.4715
vn 0.4547 -0.6009 -0.6574
vn -0.6817 -0.5595 -0.4715
vn -0.9999 -0.0000 -0.0161
vn -0.5421 -0.0000 -0.8403
vn -0.6246 -0.7809 -0.0100
vn 0.4222 -0.6029 0.6769
vn -0.7036 0.5584 0.4396
vn -0.7036 -0.5584 0.4396
vt 0.000000 0.000000
s 1
usemtl __phy
f 1/1/1 2/1/2 3/1/3
f 1/1/1 4/1/4 2/1/2
f 1/1/1 5/1/5 4/1/4
f 1/1/1 6/1/6 5/1/5
f 4/1/4 7/1/7 2/1/2
f 4/1/4 5/1/5 7/1/7
f 1/1/1 3/1/3 6/1/6
f 6/1/6 3/1/3 8/1/8
f 3/1/3 2/1/2 8/1/8
f 8/1/8 2/1/2 7/1/7
f 5/1/5 6/1/6 7/1/7
f 7/1/7 6/1/6 8/1/8
f 3/1/3 1/1/1 9/1/9
f 9/1/9 1/1/1 10/1/10
f 1/1/1 11/1/11 10/1/10
f 1/1/1 4/1/4 11/1/11
f 1/1/1 3/1/3 4/1/4
f 3/1/3 9/1/9 12/1/12
f 3/1/3 12/1/12 2/1/2
f 4/1/4 3/1/3 2/1/2
f 11/1/11 2/1/2 12/1/12
f 11/1/11 4/1/4 2/1/2
f 11/1/11 12/1/12 10/1/10
f 10/1/10 12/1/12 9/1/9
f 13/1/1 14/1/2 15/1/3
f 13/1/1 16/1/13 14/1/2
f 17/1/5 14/1/2 16/1/13
f 17/1/5 18/1/7 14/1/2
f 15/1/3 14/1/2 19/1/8
f 19/1/8 14/1/2 18/1/7
f 13/1/1 15/1/3 20/1/6
f 13/1/1 20/1/6 16/1/13
f 20/1/6 15/1/3 19/1/8
f 19/1/8 18/1/7 20/1/6
f 20/1/6 18/1/7 17/1/5
f 16/1/13 20/1/6 17/1/5
f 12/1/12 9/1/9 21/1/8
f 21/1/8 9/1/9 22/1/7
f 12/1/12 21/1/8 11/1/11
f 11/1/11 21/1/8 23/1/6
f 24/1/14 25/1/15 26/1/16
f 24/1/14 11/1/11 25/1/15
f 26/1/16 27/1/5 22/1/7
f 26/1/16 25/1/15 27/1/5
f 21/1/8 22/1/7 23/1/6
f 23/1/6 22/1/7 27/1/5
f 25/1/15 23/1/6 27/1/5
f 25/1/15 11/1/11 23/1/6
f 15/1/3 13/1/1 28/1/17
f 15/1/3 28/1/17 29/1/18
f 16/1/13 28/1/17 13/1/1
f 16/1/13 30/1/19 28/1/17
f 13/1/1 15/1/3 16/1/13
f 14/1/2 15/1/3 29/1/18
f 14/1/2 29/1/18 31/1/20
f 15/1/3 14/1/2 16/1/13
f 29/1/18 28/1/17 30/1/19
f 29/1/18 30/1/19 31/1/20
f 30/1/19 14/1/2 31/1/20
f 30/1/19 16/1/13 14/1/2
f 28/1/17 32/1/7 29/1/18
f 28/1/17 33/1/5 32/1/7
f 34/1/21 35/1/22 36/1/23
f 35/1/22 31/1/20 36/1/23
f 31/1/20 35/1/22 32/1/7
f 31/1/20 32/1/7 37/1/8
f 36/1/23 33/1/5 34/1/21
f 36/1/23 38/1/6 33/1/5
f 38/1/6 37/1/8 32/1/7
f 38/1/6 32/1/7 33/1/5
f 38/1/6 31/1/20 37/1/8
f 31/1/20 38/1/6 36/1/23
f 39/1/24 40/1/25 41/1/26
f 41/1/26 40/1/25 42/1/27
f 39/1/24 41/1/26 43/1/28
f 41/1/26 44/1/29 43/1/28
f 45/1/30 44/1/29 42/1/27
f 42/1/27 44/1/29 41/1/26
f 39/1/24 46/1/31 40/1/25
f 42/1/27 40/1/25 46/1/31
f 43/1/28 46/1/31 39/1/24
f 44/1/29 46/1/31 43/1/28
f 45/1/30 42/1/27 46/1/31
f 45/1/30 46/1/31 44/1/29
f 47/1/4 48/1/20 49/1/11
f 47/1/4 50/1/2 48/1/20
f 49/1/11 51/1/32 47/1/4
f 49/1/11 52/1/6 51/1/32
f 49/1/11 48/1/20 52/1/6
f 52/1/6 48/1/20 53/1/8
f 47/1/4 54/1/7 50/1/2
f 47/1/4 51/1/32 54/1/7
f 53/1/8 54/1/7 52/1/6
f 52/1/6 54/1/7 51/1/32
f 54/1/7 53/1/8 50/1/2
f 50/1/2 53/1/8 48/1/20
f 55/1/33 56/1/34 57/1/35
f 56/1/34 58/1/36 57/1/35
f 57/1/35 59/1/37 60/1/38
f 57/1/35 61/1/39 59/1/37
f 58/1/36 62/1/40 57/1/35
f 62/1/40 61/1/39 57/1/35
f 57/1/35 63/1/41 55/1/33
f 57/1/35 60/1/38 63/1/41
f 59/1/37 64/1/42 60/1/38
f 60/1/38 64/1/42 63/1/41
f 63/1/41 64/1/42 65/1/43
f 63/1/41 65/1/43 66/1/44
f 59/1/37 61/1/39 64/1/42
f 64/1/42 61/1/39 62/1/40
f 62/1/40 58/1/36 64/1/42
f 64/1/42 58/1/36 65/1/43
f 65/1/43 58/1/36 66/1/44
f 66/1/44 58/1/36 56/1/34
f 55/1/33 66/1/44 56/1/34
f 55/1/33 63/1/41 66/1/44
f 67/1/5 68/1/2 69/1/4
f 67/1/5 70/1/7 68/1/2
f 69/1/4 71/1/45 72/1/46
f 69/1/4 68/1/2 71/1/45
f 69/1/4 73/1/47 67/1/5
f 69/1/4 72/1/46 73/1/47
f 67/1/5 73/1/47 70/1/7
f 70/1/7 73/1/47 74/1/48
f 73/1/47 72/1/46 74/1/48
f 74/1/48 72/1/46 71/1/45
f 71/1/45 68/1/2 74/1/48
f 74/1/48 68/1/2 70/1/7
f 75/1/49 76/1/50 77/1/51
f 77/1/51 76/1/50 78/1/52
f 77/1/51 72/1/46 75/1/49
f 75/1/49 72/1/46 73/1/47
f 78/1/52 79/1/53 77/1/51
f 79/1/53 72/1/46 77/1/51
f 79/1/53 73/1/47 72/1/46
f 75/1/49 73/1/47 80/1/54
f 75/1/49 80/1/54 76/1/50
f 79/1/53 78/1/52 80/1/54
f 80/1/54 73/1/47 79/1/53
f 78/1/52 76/1/50 80/1/54
f 81/1/55 77/1/51 82/1/56
f 81/1/55 75/1/49 77/1/51
f 77/1/51 75/1/49 83/1/57
f 83/1/57 75/1/49 84/1/58
f 84/1/58 75/1/49 85/1/59
f 85/1/59 75/1/49 81/1/55
f 84/1/58 85/1/59 83/1/57
f 86/1/60 82/1/56 77/1/51
f 77/1/51 83/1/57 86/1/60
f 85/1/59 82/1/56 86/1/60
f 85/1/59 86/1/60 83/1/57
f 81/1/55 82/1/56 85/1/59
f 87/1/11 88/1/61 89/1/6
f 89/1/6 88/1/61 90/1/8
f 87/1/11 91/1/62 88/1/61
f 87/1/11 83/1/57 91/1/62
f 89/1/6 83/1/57 87/1/11
f 89/1/6 84/1/58 83/1/57
f 90/1/8 88/1/61 92/1/63
f 92/1/63 88/1/61 91/1/62
f 89/1/6 90/1/8 84/1/58
f 84/1/58 90/1/8 92/1/63
f 91/1/62 84/1/58 92/1/63
f 91/1/62 83/1/57 84/1/58
f 93/1/64 94/1/65 95/1/66
f 93/1/64 95/1/66 96/1/67
f 93/1/64 97/1/68 98/1/69
f 93/1/64 96/1/67 97/1/68
f 94/1/65 93/1/64 98/1/69
f 94/1/65 98/1/69 92/1/63
f 98/1/69 99/1/52 92/1/63
f 98/1/69 97/1/68 99/1/52
f 96/1/67 95/1/66 97/1/68
f 95/1/66 99/1/52 97/1/68
f 92/1/63 95/1/66 94/1/65
f 95/1/66 92/1/63 99/1/52
f 100/1/60 101/1/70 98/1/69
f 98/1/69 101/1/70 102/1/71
f 100/1/60 74/1/48 71/1/45
f 100/1/60 98/1/69 74/1/48
f 71/1/45 103/1/72 100/1/60
f 103/1/72 101/1/70 100/1/60
f 71/1/45 104/1/73 103/1/72
f 71/1/45 74/1/48 104/1/73
f 103/1/72 104/1/73 101/1/70
f 101/1/70 104/1/73 102/1/71
f 102/1/71 104/1/73 98/1/69
f 98/1/69 104/1/73 74/1/48
f 83/1/57 91/1/62 97/1/68
f 83/1/57 97/1/68 71/1/45
f 83/1/57 71/1/45 72/1/46
f 72/1/46 105/1/34 106/1/33
f 72/1/46 71/1/45 105/1/34
f 106/1/33 107/1/35 72/1/46
f 72/1/46 107/1/35 77/1/51
f 72/1/46 77/1/51 83/1/57
f 106/1/33 105/1/34 107/1/35
f 105/1/34 108/1/36 107/1/35
f 108/1/36 109/1/40 107/1/35
f 109/1/40 110/1/39 107/1/35
f 109/1/40 91/1/62 110/1/39
f 110/1/39 91/1/62 83/1/57
f 91/1/62 109/1/40 97/1/68
f 97/1/68 109/1/40 108/1/36
f 107/1/35 110/1/39 77/1/51
f 110/1/39 83/1/57 77/1/51
f 97/1/68 108/1/36 71/1/45
f 71/1/45 108/1/36 105/1/34
f 111/1/74 112/1/75 113/1/76
f 113/1/76 112/1/75 114/1/77
f 114/1/77 115/1/78 116/1/79
f 114/1/77 112/1/75 115/1/78
f 115/1/78 112/1/75 111/1/74
f 115/1/78 111/1/74 117/1/80
f 117/1/80 111/1/74 118/1/81
f 118/1/81 111/1/74 113/1/76
f 113/1/76 116/1/79 118/1/81
f 113/1/76 114/1/77 116/1/79
f 115/1/78 118/1/81 116/1/79
f 117/1/80 118/1/81 115/1/78
f 119/1/82 120/1/83 121/1/84
f 119/1/82 122/1/85 120/1/83
f 122/1/85 123/1/86 120/1/83
f 122/1/85 124/1/87 123/1/86
f 120/1/83 123/1/86 121/1/84
f 125/1/88 124/1/87 119/1/82
f 125/1/88 119/1/82 126/1/89
f 124/1/87 125/1/88 126/1/89
f 121/1/84 123/1/86 126/1/89
f 123/1/86 124/1/87 126/1/89
f 119/1/82 124/1/87 122/1/85
f 119/1/82 121/1/84 126/1/89
f 127/1/90 128/1/91 120/1/83
f 120/1/83 128/1/91 123/1/86
f 128/1/91 129/1/92 123/1/86
f 123/1/86 129/1/92 124/1/87
f 130/1/93 129/1/92 128/1/91
f 128/1/91 127/1/90 130/1/93
f 129/1/92 122/1/85 124/1/87
f 129/1/92 130/1/93 122/1/85
f 127/1/90 120/1/83 130/1/93
f 120/1/83 122/1/85 130/1/93
f 122/1/85 120/1/83 124/1/87
f 124/1/87 120/1/83 123/1/86
f 131/1/94 132/1/95 133/1/96
f 131/1/94 133/1/96 134/1/97
f 134/1/97 133/1/96 135/1/98
f 135/1/98 133/1/96 136/1/99
f 134/1/97 135/1/98 137/1/100
f 134/1/97 137/1/100 131/1/94
f 135/1/98 138/1/101 137/1/100
f 135/1/98 136/1/99 138/1/101
f 136/1/99 133/1/96 138/1/101
f 138/1/101 133/1/96 132/1/95
f 137/1/100 138/1/101 131/1/94
f 138/1/101 132/1/95 131/1/94
f 139/1/102 140/1/103 141/1/104
f 141/1/104 142/1/105 139/1/102
f 141/1/104 140/1/103 142/1/105
f 143/1/106 144/1/107 139/1/102
f 143/1/106 145/1/108 144/1/107
f 144/1/107 146/1/109 140/1/103
f 146/1/109 144/1/107 145/1/108
f 144/1/107 140/1/103 139/1/102
f 146/1/109 143/1/106 142/1/105
f 143/1/106 146/1/109 145/1/108
f 139/1/102 142/1/105 143/1/106
f 140/1/103 146/1/109 142/1/105
f 119/1/82 147/1/110 148/1/111
f 119/1/82 121/1/84 147/1/110
f 147/1/110 126/1/89 149/1/112
f 147/1/110 121/1/84 126/1/89
f 126/1/89 121/1/84 125/1/88
f 121/1/84 119/1/82 125/1/88
f 126/1/89 125/1/88 149/1/112
f 147/1/110 149/1/112 148/1/111
f 150/1/113 125/1/88 119/1/82
f 150/1/113 119/1/82 148/1/111
f 125/1/88 150/1/113 149/1/112
f 149/1/112 150/1/113 148/1/111
f 132/1/95 128/1/91 127/1/90
f 128/1/91 132/1/95 129/1/92
f 127/1/90 128/1/91 129/1/92
f 138/1/101 137/1/100 132/1/95
f 132/1/95 137/1/100 131/1/94
f 132/1/95 127/1/90 138/1/101
f 132/1/95 131/1/94 129/1/92
f 127/1/90 129/1/92 130/1/93
f 130/1/93 138/1/101 127/1/90
f 137/1/100 129/1/92 131/1/94
f 137/1/100 130/1/93 129/1/92
f 137/1/100 138/1/101 130/1/93
f 134/1/97 136/1/99 133/1/96
f 134/1/97 135/1/98 136/1/99
f 116/1/79 133/1/96 136/1/99
f 116/1/79 115/1/78 133/1/96
f 135/1/98 116/1/79 136/1/99
f 135/1/98 118/1/81 116/1/79
f 151/1/114 152/1/115 153/1/116
f 153/1/116 152/1/115 117/1/80
f 153/1/116 117/1/80 133/1/96
f 133/1/96 117/1/80 134/1/97
f 135/1/98 134/1/97 117/1/80
f 152/1/115 135/1/98 117/1/80
f 154/1/117 155/1/118 156/1/119
f 154/1/117 147/1/110 155/1/118
f 147/1/110 142/1/105 141/1/104
f 147/1/110 154/1/117 142/1/105
f 142/1/105 154/1/117 146/1/109
f 146/1/109 154/1/117 156/1/119
f 146/1/109 141/1/104 142/1/105
f 146/1/109 140/1/103 141/1/104
f 141/1/104 140/1/103 147/1/110
f 140/1/103 155/1/118 147/1/110
f 146/1/109 156/1/119 140/1/103
f 140/1/103 156/1/119 155/1/118
o console_physics
v -0.000129 83.827927 19.671974
v 17.036346 66.563896 9.836001
v 17.036320 83.827950 9.836001
v -0.000103 66.563873 19.671974
v 17.036348 66.563896 -9.836000
v 17.036320 83.827950 -9.836000
v -0.000129 83.827927 -19.671974
v -17.036579 83.827904 -9.836001
v -17.036579 83.827904 9.836000
v -17.036552 66.563843 9.836000
v -17.036551 66.563843 -9.836001
v -0.000102 66.563873 -19.671974
v -71.678291 10.938516 -41.383476
v -71.678276 0.416840 -41.383476
v -71.678291 10.938516 41.383476
v -71.678276 0.416840 41.383476
v -0.000000 0.416950 -82.766953
v -0.000017 10.938626 -82.766953
v 71.678276 0.417060 -41.383476
v 71.678276 0.417060 41.383476
v -0.000001 0.416950 82.766953
v 71.678261 10.938736 -41.383476
v 71.678261 10.938736 41.383476
v -0.000017 10.938626 82.766953
v -50.498013 43.673595 -29.155003
v -50.498016 43.673595 29.155001
v -0.000103 66.563873 19.671997
v -0.000101 66.563873 -19.671997
v -0.000067 43.673676 -58.309998
v 50.497883 43.673756 -29.155001
v 50.497929 10.938703 29.155003
v 50.497929 10.938703 -29.155001
v 50.497879 43.673756 29.155003
v -0.000067 43.673676 58.309998
v -0.000017 10.938626 58.309998
v -0.000017 10.938626 -58.309998
v -50.497963 10.938548 -29.155003
v -50.497963 10.938548 29.155001
vn -0.0000 0.6100 0.7924
vn 0.7064 0.5784 0.4079
vn 0.6862 0.6100 0.3962
vn -0.0000 -0.6100 0.7924
vn 0.7064 0.5784 -0.4079
vn 0.6862 0.6100 -0.3962
vn -0.0000 0.6100 -0.7924
vn -0.6862 0.6100 -0.3962
vn -0.6862 0.6100 0.3962
vn -0.7064 0.5784 0.4079
vn -0.7064 0.5784 -0.4079
vn -0.0000 -0.6100 -0.7924
vn -0.6862 -0.6100 -0.3962
vn -0.6862 -0.6100 0.3962
vn 0.6862 -0.6100 -0.3962
vn 0.6862 -0.6100 0.3962
vn -0.7788 0.4374 -0.4496
vn -0.7788 0.4374 0.4496
vn -0.0000 0.9398 0.3417
vn -0.0000 0.9398 -0.3417
vn -0.0000 0.4374 -0.8993
vn 0.7788 0.4374 -0.4496
vn 0.7788 0.4374 0.4496
vn -0.0000 0.4374 0.8993
vt 0.000000 0.000000
s 1
usemtl __phy
f 157/2/120 158/2/121 159/2/122
f 157/2/120 160/2/123 158/2/121
f 159/2/122 161/2/124 162/2/125
f 159/2/122 158/2/121 161/2/124
f 162/2/125 163/2/126 159/2/122
f 163/2/126 157/2/120 159/2/122
f 163/2/126 164/2/127 157/2/120
f 164/2/127 165/2/128 157/2/120
f 165/2/128 164/2/127 166/2/129
f 166/2/129 164/2/127 167/2/130
f 165/2/128 160/2/123 157/2/120
f 165/2/128 166/2/129 160/2/123
f 168/2/131 167/2/130 163/2/126
f 163/2/126 167/2/130 164/2/127
f 167/2/130 168/2/131 166/2/129
f 166/2/129 168/2/131 160/2/123
f 160/2/123 168/2/131 158/2/121
f 158/2/121 168/2/131 161/2/124
f 161/2/124 168/2/131 162/2/125
f 162/2/125 168/2/131 163/2/126
f 169/2/127 170/2/132 171/2/128
f 171/2/128 170/2/132 172/2/133
f 170/2/132 169/2/127 173/2/131
f 173/2/131 169/2/127 174/2/126
f 175/2/134 176/2/135 173/2/131
f 173/2/131 176/2/135 170/2/132
f 170/2/132 176/2/135 172/2/133
f 172/2/133 176/2/135 177/2/123
f 176/2/135 178/2/125 179/2/122
f 176/2/135 175/2/134 178/2/125
f 176/2/135 180/2/120 177/2/123
f 176/2/135 179/2/122 180/2/120
f 169/2/127 178/2/125 174/2/126
f 169/2/127 179/2/122 178/2/125
f 169/2/127 171/2/128 179/2/122
f 171/2/128 180/2/120 179/2/122
f 175/2/134 173/2/131 178/2/125
f 178/2/125 173/2/131 174/2/126
f 180/2/120 172/2/133 177/2/123
f 180/2/120 171/2/128 172/2/133
f 167/2/130 181/2/136 166/2/129
f 181/2/136 182/2/137 166/2/129
f 183/2/138 158/2/121 166/2/129
f 158/2/121 167/2/130 166/2/129
f 158/2/121 184/2/139 167/2/130
f 158/2/121 161/2/124 184/2/139
f 167/2/130 185/2/140 181/2/136
f 184/2/139 185/2/140 167/2/130
f 186/2/141 187/2/135 188/2/134
f 186/2/141 189/2/142 187/2/135
f 190/2/143 187/2/135 189/2/142
f 190/2/143 191/2/123 187/2/135
f 188/2/134 187/2/135 191/2/123
f 188/2/134 191/2/123 192/2/131
f 182/2/137 183/2/138 166/2/129
f 182/2/137 190/2/143 183/2/138
f 182/2/137 181/2/136 193/2/132
f 182/2/137 193/2/132 194/2/133
f 193/2/132 181/2/136 185/2/140
f 193/2/132 185/2/140 192/2/131
f 194/2/133 193/2/132 192/2/131
f 194/2/133 192/2/131 191/2/123
f 188/2/134 192/2/131 185/2/140
f 186/2/141 188/2/134 185/2/140
f 185/2/140 161/2/124 186/2/141
f 185/2/140 184/2/139 161/2/124
f 190/2/143 189/2/142 158/2/121
f 158/2/121 183/2/138 190/2/143
f 189/2/142 161/2/124 158/2/121
f 182/2/137 191/2/123 190/2/143
f 194/2/133 191/2/123 182/2/137
f 189/2/142 186/2/141 161/2/124
