# Blender 3.6.5
# www.blender.org
mtllib mctardisfixed.mtl
o mcbox
v 29.629694 83.950775 29.629683
v -29.629683 93.827324 29.629688
v -29.629683 83.950768 29.629688
v 29.629694 93.827339 29.629684
v -29.629694 93.827339 -29.629683
v -29.629694 83.950775 -29.629683
v 29.629684 93.827347 -29.629700
v 29.629683 83.950790 -29.629700
v 24.691397 4.938278 -0.000004
v 24.691402 66.666779 -0.000004
v 24.691402 79.012482 -0.000004
v 25.185225 51.851944 -0.000003
v 25.185225 56.790226 -2.469142
v 25.185225 51.851948 -2.469142
v 25.185225 56.790222 -0.000003
v 25.185225 51.851944 -0.000003
v 25.185225 56.790226 -2.469142
v 25.185225 56.790222 -0.000003
v 24.691395 4.938278 -19.753124
v 22.222256 4.938278 -14.814844
v 22.222256 4.938278 -19.753124
v 24.691397 4.938278 -14.814844
v 22.222256 4.938278 -4.938283
v 24.691397 4.938278 -4.938283
v 22.222258 4.938278 -0.000004
v 22.222263 83.950760 -0.000004
v 24.691402 83.950760 -0.000004
v 25.185225 51.851948 -2.469142
v 25.185225 56.790226 -2.469142
v 25.185225 56.790226 -2.469142
v 22.222261 83.950760 -19.753124
v 24.691402 83.950760 -14.814844
v 24.691402 83.950760 -19.753124
v 22.222261 83.950760 -14.814844
v 24.691402 83.950760 -4.938283
v 22.222263 83.950760 -4.938283
v 25.185225 51.851944 -0.000003
v 25.185225 56.790222 -0.000003
v 25.185225 56.790222 -0.000003
v 24.691402 79.012482 -4.938283
v 24.691401 79.012482 -14.814844
v 24.691401 79.012482 -19.753124
v 24.691401 66.666779 -14.814844
v 24.691401 66.666779 -19.753124
v 24.691401 66.666779 -4.938283
v 25.185225 51.851948 -2.469142
v 25.185225 51.851948 -2.469142
v 25.185225 56.790226 -2.469142
v 25.185225 51.851944 -0.000003
v 25.185225 56.790222 -0.000003
v 25.185225 56.790222 -0.000003
v 25.185225 51.851944 -0.000003
v 25.185225 51.851944 -0.000003
v 25.185225 56.790222 -0.000003
v 25.185225 51.851948 -2.469142
v 25.185225 56.790226 -2.469142
v 25.185225 56.790226 -2.469142
v 25.185225 51.851948 -2.469142
v 25.185225 56.790226 -2.469142
v 25.185225 51.851948 -2.469142
v 25.185225 51.851944 -0.000003
v 25.185225 56.790222 -0.000003
v 25.185225 51.851944 -0.000003
v 25.185234 51.851948 4.938278
v 25.185234 56.790226 4.938278
v 25.185234 51.851948 4.938278
v 25.185234 51.851948 4.938278
v 25.185234 56.790226 4.938278
v 25.185234 56.790226 2.469138
v 25.185234 51.851948 2.469138
v 22.222263 46.913658 2.469139
v 17.283985 46.913658 17.283979
v 17.283983 46.913658 2.469139
v 22.222263 46.913658 17.283979
v 17.283985 61.728500 2.469138
v 22.222265 61.728500 17.283979
v 22.222263 61.728500 2.469138
v 17.283985 61.728500 17.283979
v 24.691402 46.913658 4.938280
v 24.691404 61.728504 2.469138
v 24.691404 61.728504 4.938279
v 24.691402 46.913658 2.469139
v 24.691404 46.913658 14.814838
v 24.691404 61.728504 14.814840
v 24.691404 46.913658 17.283979
v 24.691404 61.728504 17.283979
v 22.222263 46.913662 4.938280
v 22.222265 61.728508 14.814840
v 22.222263 61.728508 4.938279
v 22.222263 46.913662 14.814838
v 22.222265 61.728508 17.283979
v 22.222263 46.913658 17.283979
v 22.222263 46.913662 2.469139
v 22.222263 61.728508 2.469138
v 25.185234 51.851948 4.938278
v 25.185234 56.790226 2.469138
v 25.185234 56.790226 4.938278
v 22.222263 46.913658 2.469139
v 17.283985 46.913658 17.283979
v 22.222263 46.913658 17.283979
v 17.283985 61.728500 2.469138
v 22.222265 61.728500 17.283979
v 17.283985 61.728500 17.283979
v 22.222261 46.913658 17.283978
v 24.691404 61.728500 17.283978
v 24.691402 46.913658 17.283978
v 22.222263 61.728508 17.283978
v 22.222261 46.913658 2.469139
v 24.691401 46.913658 4.938276
v 24.691401 46.913658 2.469139
v 22.222261 46.913658 4.938276
v 24.691402 46.913658 14.814838
v 22.222261 46.913658 14.814838
v 22.222263 61.728508 2.469138
v 24.691402 61.728500 2.469138
v 24.691401 4.938278 -0.000002
v 22.222261 46.913662 -0.000002
v 24.691401 46.913662 -0.000002
v 22.222260 4.938278 -0.000002
v 22.222261 61.728512 -0.000003
v 24.691402 61.728504 -0.000003
v 24.691406 79.012489 -0.000002
v 22.222265 83.950760 -0.000002
v 24.691406 83.950760 -0.000002
v 22.222265 79.012489 -0.000002
v 24.691404 66.666786 -0.000002
v 22.222265 66.666794 -0.000002
v 25.185234 51.851948 2.469138
v 25.185234 56.790226 2.469138
v 25.185234 51.851948 2.469138
v 24.691402 61.728500 14.814837
v 24.691404 66.666786 4.938276
v 24.691406 66.666786 14.814838
v 24.691402 61.728500 4.938277
v 24.691406 79.012489 19.753119
v 24.691406 83.950760 14.814838
v 24.691408 83.950760 19.753119
v 24.691406 79.012489 14.814838
v 24.691406 83.950760 4.938276
v 24.691406 79.012489 4.938276
v 24.691401 4.938278 4.938276
v 24.691401 4.938278 14.814838
v 24.691402 46.913662 19.753119
v 24.691402 4.938278 19.753119
v 24.691404 61.728504 19.753119
v 24.691406 66.666786 19.753119
v 22.222260 4.938278 4.938276
v 22.222261 4.938278 14.814838
v 22.222261 4.938278 19.753119
v 22.222265 79.012497 4.938276
v 22.222265 66.666794 4.938276
v 22.222267 79.012497 14.814838
v 22.222263 61.728508 4.938277
v 22.222265 66.666794 14.814838
v 22.222267 79.012489 19.753119
v 22.222267 83.950760 19.753119
v 22.222267 83.950760 14.814838
v 22.222267 83.950760 4.938276
v 22.222263 61.728508 14.814837
v 22.222265 66.666786 19.753119
v 22.222263 61.728504 19.753119
v 22.222263 46.913662 19.753119
v 25.185234 51.851948 4.938278
v 25.185234 56.790226 4.938278
v 25.185234 51.851948 4.938278
v 25.185234 51.851948 2.469138
v 25.185234 56.790226 2.469138
v 25.185234 56.790226 2.469138
v 25.185234 51.851948 2.469138
v 25.185234 51.851948 2.469138
v 25.185234 56.790226 2.469138
v 25.185234 51.851948 4.938278
v 25.185234 56.790226 4.938278
v 25.185234 56.790226 4.938278
v 25.185234 51.851948 4.938278
v 25.185234 56.790226 4.938278
v 25.185234 56.790226 4.938278
v 25.185234 51.851948 2.469138
v 25.185234 56.790226 2.469138
v 25.185234 56.790226 2.469138
v -19.753122 4.938282 -27.160542
v 19.753115 4.938278 -27.160542
v 27.160534 4.938278 -27.160545
v -19.753122 4.938282 -24.691401
v 19.753115 4.938278 -24.691401
v -27.160543 4.938282 19.753124
v -27.160549 4.938282 -27.160536
v -29.629681 4.938282 29.629686
v -29.629690 4.938282 -29.629677
v 29.629675 4.938278 -29.629686
v 27.160542 4.938278 -19.753120
v 27.160543 4.938278 27.160536
v 29.629684 4.938278 29.629677
v 19.753122 4.938278 27.160542
v -27.160540 4.938282 27.160545
v 24.691399 4.938278 -19.753120
v 27.160538 4.938278 19.753117
v 24.691397 4.938278 19.753117
v 19.753120 4.938278 24.691401
v -19.753119 4.938282 27.160542
v -19.753119 4.938282 24.691401
v -24.691404 4.938282 19.753124
v -27.160542 4.938282 -19.753120
v -24.691404 4.938282 -19.753120
v -19.753139 98.765640 -24.691410
v -24.691420 98.765625 -24.691402
v -24.691420 101.234772 -24.691402
v 19.753117 93.827354 -24.691422
v -19.753139 93.827354 -24.691410
v 19.753117 98.765640 -24.691422
v -19.753139 101.234772 -24.691410
v 24.691399 98.765625 -24.691414
v 19.753117 101.234772 -24.691422
v 24.691399 101.234749 -24.691414
v -29.629690 0.000004 -29.629677
v -29.629681 0.000004 29.629686
v 29.629684 -0.000004 29.629677
v -24.691416 101.234764 -19.753117
v -24.691416 98.765625 -19.753117
v -24.691410 101.234764 19.753134
v -24.691416 93.827347 -19.753117
v -24.691410 93.827347 19.753134
v -24.691410 98.765625 19.753134
v -24.691402 101.234749 24.691414
v -24.691402 98.765625 24.691414
v 19.753130 98.765617 24.691406
v 24.691412 98.765602 24.691399
v 24.691412 101.234749 24.691399
v -19.753117 93.827332 24.691412
v 19.753130 93.827332 24.691406
v -19.753117 98.765617 24.691412
v 19.753130 101.234749 24.691406
v -19.753117 101.234749 24.691412
v 24.691406 101.234741 19.753117
v 24.691406 98.765602 19.753117
v 24.691406 101.234741 -19.753126
v 24.691406 93.827324 19.753117
v 24.691406 93.827324 -19.753126
v 24.691406 98.765602 -19.753126
v -29.629681 83.950768 -27.160536
v -29.629681 83.950768 -29.629677
v -27.160540 83.950768 -29.629677
v -19.753122 83.950768 -24.691401
v 19.753119 83.950768 -27.160542
v 19.753122 83.950768 -24.691401
v -19.753122 83.950768 -27.160542
v 19.753122 83.950768 -29.629683
v -19.753122 83.950768 -29.629683
v -27.160545 83.950768 -27.160540
v -27.160543 83.950768 -19.753119
v -29.629679 83.950768 -19.753119
v -27.160540 83.950768 19.753126
v -29.629675 83.950768 19.753126
v -27.160536 83.950768 27.160549
v -29.629671 83.950768 27.160545
v -27.160530 83.950768 29.629686
v -29.629671 83.950768 29.629686
v -24.691397 83.950768 19.753126
v -24.691397 83.950768 -19.753119
v -19.753119 83.950768 27.160543
v -19.753119 83.950768 29.629683
v 19.753126 83.950768 27.160542
v 19.753130 83.950768 29.629683
v 19.753126 83.950768 24.691401
v -19.753119 83.950768 24.691401
v 27.160543 83.950768 -29.629686
v 27.160538 83.950768 -27.160543
v 29.629684 83.950768 -29.629686
v 29.629684 83.950768 -27.160545
v 27.160540 83.950768 -19.753122
v 29.629686 83.950768 -19.753122
v 27.160542 83.950768 19.753117
v 29.629688 83.950768 19.753119
v 27.160547 83.950768 27.160534
v 29.629690 83.950768 27.160542
v 27.160553 83.950768 29.629677
v 29.629690 83.950768 29.629677
v 24.691404 83.950768 -19.753122
v 24.691404 83.950768 19.753117
v 24.691404 93.827324 -19.753122
v 27.160542 93.827324 19.753117
v 27.160540 93.827324 -19.753122
v 24.691404 93.827324 19.753117
v 29.629690 93.827324 27.160542
v 27.160553 93.827324 29.629677
v 29.629690 93.827324 29.629677
v 27.160547 93.827324 27.160534
v 29.629688 93.827324 19.753119
v 29.629686 93.827324 -19.753122
v 29.629684 93.827324 -27.160545
v 27.160538 93.827324 -27.160543
v 29.629684 93.827324 -29.629686
v 27.160543 93.827324 -29.629686
v 19.753119 93.827324 -27.160542
v 19.753122 93.827324 -29.629683
v 19.753130 93.827324 29.629683
v 19.753126 93.827324 27.160542
v -19.753119 93.827324 29.629683
v -19.753119 93.827324 27.160543
v 19.753126 93.827324 24.691401
v -19.753119 93.827324 24.691401
v -27.160530 93.827324 29.629686
v -27.160536 93.827324 27.160549
v -29.629671 93.827324 27.160545
v -29.629675 93.827324 19.753126
v -27.160540 93.827324 19.753126
v -29.629679 93.827324 -19.753119
v -27.160543 93.827324 -19.753119
v -29.629681 93.827324 -27.160536
v -27.160545 93.827324 -27.160540
v -27.160540 93.827324 -29.629677
v -19.753122 93.827324 -29.629683
v -19.753122 93.827324 -27.160542
v -19.753122 93.827324 -24.691401
v 19.753122 93.827324 -24.691401
v -29.629671 93.827324 29.629686
v -29.629681 93.827324 -29.629677
v -24.691397 93.827324 19.753126
v -24.691397 93.827324 -19.753119
v -24.691404 66.666786 -4.938276
v -24.691404 79.012497 4.938289
v -24.691404 79.012497 -4.938273
v -24.691404 66.666786 4.938286
v -24.691410 66.666786 -19.753117
v -24.691404 66.666786 -14.814837
v -24.691404 79.012497 -14.814837
v -24.691410 4.938283 -19.753120
v -24.691404 4.938281 -14.814840
v -24.691404 4.938280 -4.938278
v -24.691404 4.938279 4.938284
v -24.691404 66.666786 14.814846
v -24.691404 4.938279 14.814845
v -24.691410 79.012497 -19.753117
v -24.691404 83.950775 -14.814837
v -24.691404 83.950775 -4.938273
v -24.691404 83.950775 4.938289
v -24.691404 83.950775 14.814849
v -24.691404 79.012497 14.814849
v -24.691399 83.950775 19.753132
v -24.691399 79.012497 19.753132
v -24.691399 66.666786 19.753130
v -24.691399 4.938279 19.753126
v -24.691410 83.950775 -19.753117
v 24.691401 4.938278 19.753117
v 22.222260 4.938278 -19.753120
v 22.222260 4.938278 19.753117
v 24.691397 4.938278 -19.753124
v 22.222267 83.950760 19.753117
v 24.691401 83.950760 -19.753124
v 24.691404 83.950760 19.753117
v 22.222263 83.950760 -19.753124
v 27.160542 4.938278 19.753117
v 27.160543 83.950768 19.753117
v 19.753117 4.938280 -27.160557
v 19.753117 83.950790 -24.691418
v 19.753117 83.950790 -27.160559
v 19.753117 4.938280 -24.691416
v 24.691401 4.938280 -19.753136
v 27.160542 83.950790 -19.753139
v 24.691401 83.950790 -19.753139
v 27.160542 4.938280 -19.753136
v 27.160540 83.950790 -27.160561
v 27.160540 4.938280 -27.160559
v 19.753117 93.827354 -27.160563
v 19.753117 98.765640 -24.691423
v 19.753117 98.765640 -27.160563
v 27.160542 98.765640 -19.753143
v 27.160540 98.765640 -24.691429
v 24.691402 98.765640 -24.691425
v 24.691401 98.765640 -19.753143
v 24.691399 98.765640 -27.160564
v 27.160540 98.765640 -27.160564
v 24.691401 93.827354 -19.753139
v 27.160542 93.827354 -19.753139
v -27.160549 4.938279 -19.753117
v -24.691412 83.950783 -19.753117
v -27.160553 83.950783 -19.753117
v -24.691410 4.938279 -19.753117
v -19.753132 4.938279 -24.691401
v -19.753134 83.950783 -27.160542
v -19.753134 83.950783 -24.691401
v -19.753132 4.938279 -27.160542
v -27.160555 83.950783 -27.160540
v -27.160551 4.938279 -27.160540
v -27.160557 93.827347 -19.753117
v -24.691418 98.765625 -19.753117
v -27.160557 98.765625 -19.753117
v -19.753139 98.765625 -27.160542
v -24.691423 98.765625 -27.160540
v -19.753139 98.765625 -24.691401
v -27.160559 98.765625 -24.691397
v -27.160559 98.765625 -27.160540
v -19.753136 93.827347 -24.691401
v -19.753136 93.827347 -27.160542
v -19.753117 4.938279 27.160547
v -19.753117 83.950775 24.691410
v -19.753117 83.950775 27.160549
v -19.753117 4.938279 24.691406
v -27.160538 83.950775 19.753130
v -24.691399 83.950775 19.753130
v -27.160538 4.938279 19.753126
v -27.160536 83.950775 27.160551
v -27.160536 4.938279 27.160549
v -19.753117 93.827332 27.160553
v -19.753117 98.765617 24.691416
v -19.753117 98.765617 27.160553
v -27.160538 98.765617 19.753134
v -27.160536 98.765617 24.691420
v -24.691399 98.765617 24.691418
v -24.691399 98.765617 19.753134
v -24.691397 98.765617 27.160555
v -27.160536 98.765617 27.160555
v -24.691399 93.827332 19.753132
v -27.160538 93.827332 19.753132
v 19.753122 4.938278 24.691399
v 19.753126 83.950768 27.160538
v 19.753126 83.950768 24.691399
v 19.753122 4.938278 27.160538
v 27.160545 83.950768 27.160536
v 27.160547 93.827324 19.753117
v 24.691410 98.765602 19.753117
v 27.160547 98.765602 19.753117
v 19.753130 98.765602 27.160538
v 24.691414 98.765602 27.160536
v 19.753130 98.765602 24.691399
v 27.160549 98.765602 24.691397
v 27.160549 98.765602 27.160536
v 19.753126 93.827324 24.691399
v 19.753126 93.827324 27.160538
v 4.938274 66.666801 -24.691406
v -4.938291 79.012497 -24.691406
v 4.938272 79.012497 -24.691406
v -4.938288 66.666801 -24.691406
v 19.753117 66.666801 -24.691412
v 14.814834 79.012497 -24.691410
v 19.753117 79.012497 -24.691412
v 14.814837 66.666801 -24.691410
v 19.753119 4.938283 -24.691412
v 14.814838 4.938281 -24.691410
v 4.938277 4.938280 -24.691406
v -4.938286 4.938280 -24.691406
v -14.814851 66.666801 -24.691404
v -14.814849 4.938279 -24.691404
v 14.814834 83.950783 -24.691410
v 19.753115 83.950783 -24.691412
v 4.938272 83.950783 -24.691406
v -4.938291 83.950783 -24.691406
v -14.814854 83.950783 -24.691404
v -14.814854 79.012497 -24.691404
v -19.753136 83.950783 -24.691401
v -19.753136 79.012497 -24.691401
v -19.753134 66.666801 -24.691401
v -19.753130 4.938279 -24.691401
v -4.938277 66.666786 24.691401
v 4.938286 79.012482 24.691401
v -4.938274 79.012482 24.691401
v 4.938283 66.666786 24.691401
v -19.753117 66.666786 24.691404
v -14.814837 79.012482 24.691401
v -19.753117 79.012482 24.691404
v -14.814837 66.666786 24.691401
v -19.753119 4.938282 24.691404
v -14.814840 4.938280 24.691401
v -4.938279 4.938279 24.691401
v 4.938281 4.938278 24.691401
v 14.814843 66.666786 24.691401
v 14.814842 4.938278 24.691401
v -14.814837 83.950768 24.691401
v -19.753115 83.950768 24.691404
v -4.938274 83.950768 24.691401
v 4.938286 83.950768 24.691401
v 14.814846 83.950768 24.691401
v 14.814846 79.012482 24.691401
v 19.753126 79.012482 24.691399
v 19.753126 66.666786 24.691399
v 19.753120 4.938278 24.691399
v 29.629675 -0.000004 -29.629686
v 4.938285 101.234741 -4.938282
v 24.691412 101.234741 24.691397
v 24.691402 101.234741 -24.691406
v 4.938287 101.234741 4.938280
v -24.691391 101.234741 24.691406
v -4.938275 101.234741 4.938282
v -24.691401 101.234741 -24.691397
v -4.938278 101.234741 -4.938280
v 27.160549 93.827324 27.160536
v -27.160536 93.827332 27.160555
v 27.160540 93.827354 -27.160564
v -27.160559 93.827347 -27.160540
v 4.938280 113.580437 -4.938275
v -4.938280 113.580437 4.938286
v 4.938281 113.580437 4.938285
v -4.938281 113.580437 -4.938274
v -4.938280 101.234741 4.938285
v 4.938281 101.234741 4.938284
v -4.938281 101.234741 -4.938275
v 4.938280 101.234741 -4.938276
vn 0.7071 -0.0000 0.7071
vn -0.7071 -0.0000 0.7071
vn -0.7071 -0.0000 -0.7071
vn 0.7071 -0.0000 -0.7071
vn 0.5774 -0.5773 0.5774
vn -1.0000 -0.0000 -0.0000
vn 0.4365 0.8987 -0.0428
vn 1.0000 -0.0000 -0.0000
vn 0.5774 -0.5774 -0.5774
vn -0.7071 -0.7071 -0.0000
vn -0.5773 -0.5773 -0.5774
vn 0.7071 -0.7071 -0.0000
vn -0.5774 -0.5774 0.5774
vn -0.5773 0.5774 0.5774
vn 0.5774 0.5774 0.5774
vn -0.0000 1.0000 -0.0000
vn -0.5774 0.5774 -0.5774
vn 0.7071 0.7071 -0.0000
vn 0.5774 0.5773 -0.5774
vn -0.7071 0.7071 -0.0000
vn 0.4369 0.8995 -0.0000
vn 0.4051 0.9134 -0.0397
vn 0.4054 0.9141 -0.0000
vn 0.4365 0.8987 0.0428
vn -0.0000 -0.7071 -0.7071
vn -0.9630 -0.2696 -0.0000
vn -0.0000 -0.7071 0.7071
vn -0.0000 0.7071 0.7071
vn -0.5774 0.5774 0.5774
vn 0.5774 0.5773 -0.5773
vn 0.5773 -0.5774 -0.5774
vn 0.5774 -0.5774 0.5774
vn 0.5774 0.5773 0.5774
vn -0.5774 0.5774 0.5773
vn -0.5774 -0.5774 0.5773
vn -0.5774 -0.5773 -0.5773
vn -0.5773 0.5774 -0.5774
vn 0.5774 0.5774 -0.5774
vn -0.0000 0.7071 -0.7071
vn -0.9045 0.3015 -0.3015
vn 0.9045 -0.3015 -0.3015
vn 0.9045 0.3015 -0.3015
vn -0.9045 -0.3015 -0.3015
vn -0.9045 0.3015 0.3015
vn 0.9045 0.3015 0.3015
vn -0.9045 -0.3015 0.3015
vn 0.9045 -0.3015 0.3015
vn 0.5774 -0.5774 -0.5773
vn -0.5774 -0.5774 -0.5774
vn -0.5774 0.5774 -0.5773
vn 0.4051 0.9134 0.0397
vn 0.4041 0.9113 0.0792
vn 0.4353 0.8962 0.0854
vn -0.0000 0.9984 0.0560
vn 0.5773 0.5774 -0.5774
vn 0.3015 0.9045 0.3015
vn 0.5774 0.5774 0.5773
vn -0.0796 0.9968 -0.0000
vn -0.0000 0.9962 0.0876
vn -0.0483 0.9988 -0.0000
vn -0.0000 -0.0000 -1.0000
vn -0.3015 0.9045 -0.3015
vn 0.5773 -0.5774 0.5774
vn -0.0000 -0.0000 1.0000
vn -0.0000 -1.0000 -0.0000
vn -0.0000 0.4472 -0.8944
vn 0.5773 0.5774 0.5774
vt 0.218750 0.781250
vt 0.031250 0.812500
vt 0.031250 0.781250
vt 0.218750 0.812500
vt 0.906250 0.750000
vt 0.906250 0.945312
vt 0.906250 0.984375
vt 0.906250 0.898438
vt 0.914062 0.914062
vt 0.914062 0.898438
vt 0.906250 0.914062
vt 0.890625 0.757812
vt 0.906250 0.757812
vt 0.890625 0.750000
vt 0.859375 0.757812
vt 0.890625 0.757813
vt 0.859375 0.750000
vt 0.843750 0.757812
vt 0.843750 0.750000
vt 0.898438 1.000000
vt 0.898438 0.750000
vt 0.906250 1.000000
vt 0.914062 0.906250
vt 0.914062 0.921875
vt 0.890625 0.992188
vt 0.906250 0.992188
vt 0.890625 1.000000
vt 0.859375 0.992188
vt 0.859375 1.000000
vt 0.843750 0.992188
vt 0.843750 1.000000
vt 0.406250 0.750000
vt 0.421875 1.000000
vt 0.406250 1.000000
vt 0.421875 0.750000
vt 0.453125 1.000000
vt 0.453125 0.750000
vt 0.468750 1.000000
vt 0.468750 0.750000
vt 0.843750 0.984375
vt 0.859375 0.984375
vt 0.890625 0.984375
vt 0.890625 0.945312
vt 0.843750 0.945312
vt 0.859375 0.945312
vt 0.898438 0.945312
vt 0.898438 0.984375
vt 0.906250 0.906250
vt 0.906250 0.921875
vt 0.648438 0.726562
vt 0.601562 0.742188
vt 0.648438 0.742188
vt 0.601562 0.726562
vt 0.632812 0.695312
vt 0.632812 0.742188
vt 0.648438 0.695312
vt 0.601562 0.695312
vt 0.617188 0.742188
vt 0.617188 0.695312
vt 0.828125 0.882812
vt 0.835938 0.929688
vt 0.828125 0.929688
vt 0.835938 0.882812
vt 0.796875 0.882812
vt 0.828125 0.929687
vt 0.796875 0.929687
vt 0.789062 0.882812
vt 0.796875 0.929688
vt 0.789062 0.929688
vt 0.484375 0.882812
vt 0.515625 0.929688
vt 0.484375 0.929688
vt 0.515625 0.882812
vt 0.523438 0.929688
vt 0.523438 0.882812
vt 0.476562 0.882812
vt 0.484375 0.929687
vt 0.476562 0.929687
vt 0.609375 0.742188
vt 0.609375 0.695312
vt 0.640625 0.703125
vt 0.648438 0.703125
vt 0.640625 0.695312
vt 0.609375 0.703125
vt 0.601562 0.703125
vt 0.640625 0.742188
vt 0.781250 0.750000
vt 0.789062 0.882813
vt 0.781250 0.882812
vt 0.789062 0.750000
vt 0.789063 0.929688
vt 0.781250 0.929688
vt 0.789063 0.882813
vt 0.781250 0.984375
vt 0.789062 1.000000
vt 0.781250 1.000000
vt 0.789062 0.984375
vt 0.781250 0.945313
vt 0.789062 0.945313
vt 0.828125 0.945312
vt 0.796875 0.945312
vt 0.796875 1.000000
vt 0.796875 0.984375
vt 0.828125 1.000000
vt 0.828125 0.984375
vt 0.843750 0.945313
vt 0.843750 0.929688
vt 0.843750 0.882812
vt 0.828125 0.750000
vt 0.796875 0.750000
vt 0.796875 0.945313
vt 0.828125 0.757812
vt 0.796875 0.757812
vt 0.828125 0.757813
vt 0.781250 0.757812
vt 0.796875 0.890625
vt 0.789062 0.890625
vt 0.828125 0.890625
vt 0.835938 0.890625
vt 0.468750 0.945313
vt 0.484375 0.984375
vt 0.468750 0.984375
vt 0.484375 0.945312
vt 0.515625 0.984375
vt 0.468750 0.929688
vt 0.476562 0.929688
vt 0.515625 0.945312
vt 0.531250 0.984375
vt 0.531250 1.000000
vt 0.515625 1.000000
vt 0.484375 1.000000
vt 0.531250 0.945313
vt 0.531250 0.929688
vt 0.531250 0.929687
vt 0.531250 0.882812
vt 0.531250 0.750000
vt 0.515625 0.750000
vt 0.484375 0.750000
vt 0.468750 0.882812
vt 0.468750 0.929687
vt 0.828125 0.992188
vt 0.796875 0.992188
vt 0.781250 0.992188
vt 0.609375 0.734375
vt 0.601562 0.734375
vt 0.640625 0.734375
vt 0.648438 0.734375
vt 0.828125 0.921875
vt 0.835938 0.921875
vt 0.796875 0.921875
vt 0.789062 0.921875
vt 0.781250 0.882813
vt 0.210938 0.968750
vt 0.210938 0.843750
vt 0.210938 0.820312
vt 0.203125 0.968750
vt 0.210937 0.843750
vt 0.203125 0.843750
vt 0.062500 0.992187
vt 0.210938 0.992187
vt 0.031250 1.000000
vt 0.218750 1.000000
vt 0.187500 0.820313
vt 0.039062 0.820312
vt 0.039062 0.843750
vt 0.039062 0.992187
vt 0.187500 0.828125
vt 0.062500 0.820312
vt 0.062500 0.828125
vt 0.046875 0.843750
vt 0.039062 0.968750
vt 0.046875 0.968750
vt 0.062500 0.984375
vt 0.187500 0.992187
vt 0.187500 0.984375
vt 0.359375 0.632812
vt 0.375000 0.632812
vt 0.375000 0.640625
vt 0.234375 0.617188
vt 0.359375 0.617188
vt 0.234375 0.632812
vt 0.359375 0.640625
vt 0.218750 0.632812
vt 0.234375 0.640625
vt 0.218750 0.640625
vt 0.218750 0.796875
vt 0.406250 0.812500
vt 0.406250 0.796875
vt 0.210938 0.781250
vt 0.218750 0.773438
vt 0.203125 0.750000
vt 0.210937 0.625000
vt 0.203125 0.625000
vt 0.210938 0.750000
vt 0.218750 0.625000
vt 0.218750 0.750000
vt 0.210938 0.773438
vt 0.187500 0.773438
vt 0.187500 0.781250
vt 0.062500 0.773438
vt 0.062500 0.781250
vt 0.039062 0.773438
vt 0.039062 0.781250
vt 0.031250 0.773438
vt 0.062500 0.765625
vt 0.187500 0.765625
vt 0.039062 0.750000
vt 0.031250 0.750000
vt 0.039062 0.625000
vt 0.031250 0.625000
vt 0.046875 0.625000
vt 0.046875 0.750000
vt 0.210938 0.625000
vt 0.218750 0.601562
vt 0.210938 0.601562
vt 0.218750 0.593750
vt 0.210937 0.593750
vt 0.187500 0.601562
vt 0.187500 0.593750
vt 0.062500 0.601562
vt 0.062500 0.593750
vt 0.039063 0.601562
vt 0.039062 0.593750
vt 0.031250 0.601562
vt 0.039063 0.625000
vt 0.031250 0.593750
vt 0.187500 0.609375
vt 0.062500 0.601563
vt 0.062500 0.609375
vt 0.703125 0.945312
vt 0.734375 0.984375
vt 0.703125 0.984375
vt 0.734375 0.945312
vt 0.656250 0.945312
vt 0.671875 0.945312
vt 0.671875 0.984375
vt 0.656250 0.750000
vt 0.671875 0.750000
vt 0.703125 0.750000
vt 0.734375 0.750000
vt 0.765625 0.945312
vt 0.765625 0.750000
vt 0.656250 0.984375
vt 0.671875 1.000000
vt 0.703125 1.000000
vt 0.734375 1.000000
vt 0.765625 1.000000
vt 0.765625 0.984375
vt 0.781250 0.945312
vt 0.656250 1.000000
vt 0.187500 0.835937
vt 0.062500 0.835938
vt 0.054687 0.617187
vt 0.203125 0.609375
vt 0.046875 0.609375
vt 0.195312 0.617188
vt 0.062501 0.273437
vt 0.054688 0.523437
vt 0.062500 0.523437
vt 0.054689 0.273437
vt 0.054688 0.273437
vt 0.062500 0.523438
vt 0.054688 0.523438
vt 0.062500 0.273437
vt 0.046875 0.273438
vt 0.046875 0.523438
vt 0.023438 0.273438
vt 0.023437 0.523438
vt 0.046875 0.523437
vt 0.046875 0.554688
vt 0.054688 0.570313
vt 0.046875 0.570312
vt 0.054688 0.554688
vt 0.023438 0.570312
vt 0.039063 0.570312
vt 0.039063 0.578125
vt 0.023438 0.578125
vt 0.046875 0.593750
vt 0.046875 0.578125
vt 0.054688 0.570312
vt 0.312500 0.703125
vt 0.281250 0.703125
vt 0.281250 0.734375
vt 0.375000 0.796875
vt 0.312500 0.734375
vt 0.023438 0.554688
vt 0.039062 0.570312
vt 0.671875 0.945313
vt 0.703125 0.945313
vt 0.000000 0.968750
vt 0.031250 0.968750
vt 0.000000 1.000000
vt 0.000000 0.929688
vt 0.031250 0.929688
s 1
usemtl mcbox
f 1/1/1 2/2/2 3/3/2
f 1/1/1 4/4/1 2/2/2
f 3/1/2 5/2/3 6/3/3
f 3/1/2 2/4/2 5/2/3
f 6/1/3 7/2/4 8/3/4
f 6/1/3 5/4/3 7/2/4
f 8/1/4 4/2/1 1/3/1
f 8/1/4 7/4/4 4/2/1
f 9/5/5 10/6/4 11/7/1
f 12/8/6 13/9/6 14/10/7
f 12/8/6 15/11/6 13/9/6
f 16/8/8 17/9/8 18/11/8
f 16/8/8 14/10/7 17/9/8
f 19/5/9 20/12/10 21/13/11
f 19/5/9 22/14/12 20/12/10
f 22/14/12 23/15/10 20/16/10
f 22/14/12 24/17/12 23/15/10
f 24/17/12 25/18/13 23/15/10
f 24/17/12 9/19/5 25/18/13
f 26/20/14 25/21/13 9/5/5
f 9/5/5 11/7/1 26/20/14
f 11/7/1 27/22/15 26/20/14
f 28/23/7 29/24/16 30/24/16
f 31/22/17 32/25/18 33/26/19
f 31/22/17 34/27/20 32/25/18
f 34/27/20 35/28/18 32/25/18
f 34/27/20 36/29/20 35/28/18
f 36/29/20 27/30/15 35/28/18
f 36/29/20 26/31/14 27/30/15
f 21/32/11 34/33/20 31/34/17
f 21/32/11 20/35/10 34/33/20
f 20/35/10 36/36/20 34/33/20
f 20/35/10 23/37/10 36/36/20
f 23/37/10 26/38/14 36/36/20
f 23/37/10 25/39/13 26/38/14
f 37/23/21 38/24/16 39/24/16
f 11/40/1 35/29/18 27/31/15
f 11/40/1 40/41/8 35/29/18
f 40/41/8 32/27/18 35/29/18
f 40/41/8 41/42/8 32/27/18
f 41/42/8 33/22/19 32/27/18
f 41/42/8 42/7/4 33/22/19
f 43/43/8 42/7/4 41/42/8
f 43/43/8 44/6/4 42/7/4
f 22/14/12 44/6/4 43/43/8
f 22/14/12 19/5/9 44/6/4
f 10/44/4 40/41/8 11/40/1
f 10/44/4 45/45/8 40/41/8
f 9/19/5 45/45/8 10/44/4
f 9/19/5 24/17/12 45/45/8
f 24/17/12 43/43/8 45/45/8
f 24/17/12 22/14/12 43/43/8
f 44/46/4 19/21/9 21/5/11
f 42/47/4 44/46/4 21/5/11
f 21/5/11 33/20/19 42/47/4
f 21/5/11 31/22/17 33/20/19
f 46/23/16 47/23/16 48/24/22
f 49/23/21 50/24/16 51/24/16
f 52/23/16 53/23/16 54/24/23
f 55/23/7 56/24/16 57/24/16
f 58/23/16 59/24/22 60/23/16
f 61/23/16 62/24/23 63/23/16
f 66/23/16 67/23/20 68/24/6
f 67/48/20 69/24/6 70/23/24
f 67/48/20 68/49/6 69/24/6
f 71/50/25 72/51/13 73/52/26
f 71/50/25 74/53/27 72/51/13
f 75/52/17 76/53/28 77/50/16
f 75/52/17 78/51/29 76/53/28
f 71/54/25 75/52/17 77/55/16
f 71/54/25 73/56/26 75/52/17
f 73/57/26 78/52/29 75/51/17
f 73/57/26 72/56/13 78/52/29
f 72/57/13 76/58/28 78/51/29
f 72/57/13 74/59/27 76/58/28
f 79/60/12 80/61/30 81/62/18
f 79/60/12 82/63/31 80/61/30
f 83/64/12 81/65/18 84/66/18
f 83/64/12 79/60/12 81/65/18
f 85/67/32 84/68/18 86/69/33
f 85/67/32 83/64/12 84/68/18
f 87/70/10 88/71/20 89/72/20
f 87/70/10 90/73/10 88/71/20
f 90/73/10 91/74/34 88/71/20
f 90/73/10 92/75/35 91/74/34
f 93/76/36 89/77/20 94/78/37
f 93/76/36 87/70/10 89/77/20
f 95/48/8 96/24/8 97/49/8
f 95/48/8 70/23/24 96/24/8
f 98/50/28 99/51/38 100/53/39
f 98/50/28 73/52/26 99/51/38
f 101/52/32 102/53/25 103/51/9
f 101/52/32 77/50/16 102/53/25
f 98/54/28 101/52/32 73/56/26
f 98/54/28 77/55/16 101/52/32
f 73/57/26 103/52/9 99/56/38
f 73/57/26 101/51/32 103/52/9
f 99/57/38 102/58/25 100/59/39
f 99/57/38 103/51/9 102/58/25
f 104/57/40 105/79/41 106/80/42
f 104/57/40 107/51/43 105/79/41
f 108/56/44 109/81/18 110/82/45
f 108/56/44 111/83/20 109/81/18
f 111/83/20 112/84/18 109/81/18
f 111/83/20 113/80/20 112/84/18
f 113/80/20 106/85/42 112/84/18
f 113/80/20 104/57/40 106/85/42
f 114/52/46 110/83/45 115/86/47
f 114/52/46 108/56/44 110/83/45
f 116/87/48 117/88/3 118/89/4
f 116/87/48 119/90/49 117/88/3
f 118/89/4 120/91/3 121/92/4
f 118/89/4 117/93/3 120/91/3
f 122/94/4 123/95/50 124/96/38
f 122/94/4 125/97/3 123/95/50
f 126/98/4 125/97/3 122/94/4
f 126/98/4 127/99/3 125/97/3
f 121/92/4 127/99/3 126/98/4
f 121/92/4 120/69/3 127/99/3
f 128/23/16 129/24/51 130/23/16
f 131/66/12 132/100/8 133/101/8
f 131/66/12 134/65/12 132/100/8
f 132/100/8 134/62/12 115/61/47
f 135/94/1 136/102/18 137/96/15
f 135/94/1 138/103/8 136/102/18
f 138/103/8 139/104/18 136/102/18
f 138/103/8 140/105/8 139/104/18
f 140/105/8 124/31/38 139/104/18
f 140/105/8 122/40/4 124/31/38
f 132/100/8 122/40/4 140/105/8
f 132/100/8 126/106/4 122/40/4
f 115/61/47 126/106/4 132/100/8
f 115/61/47 121/107/4 126/106/4
f 110/63/45 121/107/4 115/61/47
f 110/63/45 118/108/4 121/107/4
f 116/19/48 118/108/4 110/63/45
f 116/19/48 110/63/45 109/60/18
f 109/60/18 141/109/12 116/19/48
f 142/110/12 141/109/12 109/60/18
f 142/110/12 109/60/18 112/64/18
f 142/110/12 112/64/18 106/67/42
f 143/89/1 144/87/32 142/110/12
f 142/110/12 106/67/42 143/89/1
f 143/89/1 106/67/42 105/69/41
f 143/89/1 105/69/41 145/92/1
f 146/98/1 145/92/1 105/69/41
f 105/69/41 133/111/8 146/98/1
f 146/98/1 133/111/8 138/103/8
f 146/98/1 138/103/8 135/94/1
f 105/69/41 131/68/12 133/111/8
f 116/19/48 147/112/10 119/18/49
f 116/19/48 141/109/12 147/112/10
f 141/109/12 148/113/10 147/114/10
f 141/109/12 142/110/12 148/113/10
f 142/110/12 149/115/35 148/113/10
f 142/110/12 144/87/32 149/115/35
f 93/63/36 80/62/30 82/60/31
f 93/63/36 94/61/37 80/62/30
f 92/67/35 83/116/12 85/117/32
f 92/67/35 90/64/10 83/116/12
f 90/64/10 79/118/12 83/116/12
f 90/64/10 87/60/10 79/118/12
f 87/60/10 82/119/31 79/118/12
f 87/60/10 93/63/36 82/119/31
f 91/69/34 85/64/32 86/68/33
f 91/69/34 92/67/35 85/64/32
f 127/120/3 150/121/6 125/122/3
f 127/120/3 151/123/6 150/121/6
f 151/123/6 152/124/6 150/121/6
f 127/120/3 120/125/3 114/126/46
f 114/126/46 151/123/6 127/120/3
f 114/126/46 153/72/10 151/123/6
f 153/72/10 154/127/6 151/123/6
f 151/123/6 154/127/6 152/124/6
f 154/127/6 155/128/2 152/124/6
f 152/124/6 155/128/2 156/129/29
f 152/124/6 156/129/29 157/130/20
f 150/121/6 152/124/6 157/130/20
f 150/121/6 157/130/20 158/131/20
f 125/122/3 150/121/6 158/131/20
f 125/122/3 158/131/20 123/38/50
f 153/72/10 159/71/10 154/127/6
f 154/127/6 159/71/10 107/74/43
f 107/74/43 160/132/2 154/127/6
f 154/127/6 160/132/2 155/128/2
f 107/74/43 161/133/2 160/132/2
f 104/75/40 161/134/2 107/74/43
f 104/75/40 162/135/2 161/134/2
f 149/136/35 162/135/2 104/75/40
f 149/136/35 104/75/40 113/73/20
f 113/73/20 148/137/10 149/136/35
f 147/138/10 148/137/10 113/73/20
f 147/138/10 113/73/20 111/70/20
f 147/138/10 111/70/20 108/76/44
f 147/138/10 108/76/44 117/139/3
f 117/139/3 108/76/44 114/78/46
f 117/139/3 114/78/46 120/140/3
f 117/139/3 119/39/49 147/138/10
f 123/31/50 139/141/18 124/30/38
f 123/31/50 158/104/20 139/141/18
f 158/104/20 136/142/18 139/141/18
f 158/104/20 157/102/20 136/142/18
f 157/102/20 137/143/15 136/142/18
f 157/102/20 156/96/29 137/143/15
f 107/51/43 131/144/12 105/145/41
f 107/51/43 159/79/10 131/144/12
f 159/79/10 134/146/12 131/144/12
f 159/79/10 153/86/10 134/146/12
f 153/86/10 115/147/47 134/146/12
f 153/86/10 114/52/46 115/147/47
f 163/23/16 164/24/52 165/23/16
f 94/61/37 81/148/18 80/149/30
f 94/61/37 89/62/20 81/148/18
f 89/62/20 84/150/18 81/148/18
f 89/62/20 88/68/20 84/150/18
f 88/68/20 86/151/33 84/150/18
f 88/68/20 91/69/34 86/151/33
f 166/23/24 167/24/16 168/24/16
f 155/94/2 137/95/15 156/96/29
f 155/94/2 135/97/1 137/95/15
f 160/98/2 135/97/1 155/94/2
f 160/98/2 146/99/1 135/97/1
f 161/92/2 146/99/1 160/98/2
f 161/92/2 145/69/1 146/99/1
f 162/152/2 145/69/1 161/92/2
f 162/152/2 143/67/1 145/69/1
f 149/87/35 143/67/1 162/152/2
f 149/87/35 144/90/32 143/67/1
f 169/23/16 170/23/16 171/24/51
f 172/23/53 173/24/16 174/24/16
f 175/23/53 176/24/16 177/24/16
f 178/23/24 179/24/16 180/24/16
f 181/153/16 182/154/54 183/155/16
f 184/156/16 182/157/54 181/153/16
f 184/156/16 185/158/16 182/157/54
f 186/159/16 187/160/16 188/161/14
f 187/160/16 189/162/37 188/161/14
f 189/162/37 187/160/16 181/153/16
f 181/153/16 183/155/16 189/162/37
f 183/155/16 190/4/55 189/162/37
f 190/4/55 183/155/16 191/163/16
f 191/163/16 192/164/56 190/4/55
f 192/164/56 193/2/57 190/4/55
f 193/2/57 192/164/56 194/165/16
f 194/165/16 195/166/16 193/2/57
f 195/166/16 188/161/14 193/2/57
f 188/161/14 195/166/16 186/159/16
f 196/167/16 197/168/58 191/163/16
f 196/167/16 198/169/16 197/168/58
f 199/170/16 200/171/59 194/165/16
f 199/170/16 201/172/16 200/171/59
f 202/173/16 203/174/60 186/159/16
f 202/173/16 204/175/16 203/174/60
f 205/176/61 206/177/62 207/178/3
f 208/179/3 209/180/61 205/176/61
f 208/179/3 205/176/61 210/181/61
f 210/181/61 205/176/61 211/182/61
f 205/176/61 207/178/3 211/182/61
f 212/183/4 213/184/61 214/185/4
f 212/183/4 210/181/61 213/184/61
f 210/181/61 211/182/61 213/184/61
f 215/186/49 188/187/14 189/4/37
f 215/186/49 216/188/13 188/187/14
f 217/188/63 188/4/14 216/186/13
f 217/188/63 193/187/57 188/4/14
f 206/183/62 218/184/6 207/185/3
f 206/183/62 219/181/6 218/184/6
f 219/181/6 220/182/6 218/184/6
f 221/179/2 222/180/6 223/176/6
f 221/179/2 223/176/6 219/181/6
f 219/181/6 223/176/6 220/182/6
f 223/176/6 224/178/2 220/182/6
f 223/176/6 225/177/2 224/178/2
f 226/176/64 227/177/56 228/178/1
f 229/179/1 230/180/64 226/176/64
f 229/179/1 226/176/64 231/181/64
f 231/181/64 226/176/64 232/182/64
f 226/176/64 228/178/1 232/182/64
f 225/183/2 233/184/64 224/185/2
f 225/183/2 231/181/64 233/184/64
f 231/181/64 232/182/64 233/184/64
f 227/183/56 234/184/8 228/185/1
f 227/183/56 235/181/8 234/184/8
f 235/181/8 236/182/8 234/184/8
f 237/179/4 238/180/8 239/176/8
f 237/179/4 239/176/8 235/181/8
f 235/181/8 239/176/8 236/182/8
f 239/176/8 214/178/4 236/182/8
f 239/176/8 212/177/4 214/178/4
f 240/189/65 241/1/65 242/190/65
f 243/191/65 244/192/65 245/193/65
f 243/191/65 246/194/65 244/192/65
f 246/194/65 247/195/65 244/192/65
f 246/194/65 248/196/65 247/195/65
f 249/197/65 248/196/65 246/194/65
f 249/197/65 242/190/65 248/196/65
f 240/189/65 242/190/65 249/197/65
f 250/198/65 240/189/65 249/197/65
f 250/198/65 251/199/65 240/189/65
f 252/200/65 251/199/65 250/198/65
f 252/200/65 253/201/65 251/199/65
f 254/202/65 253/201/65 252/200/65
f 254/202/65 255/203/65 253/201/65
f 256/204/65 255/203/65 254/202/65
f 256/204/65 257/3/65 255/203/65
f 258/205/65 250/198/65 259/206/65
f 258/205/65 252/200/65 250/198/65
f 260/207/65 256/204/65 254/202/65
f 260/207/65 261/208/65 256/204/65
f 262/209/65 261/208/65 260/207/65
f 262/209/65 263/210/65 261/208/65
f 264/211/65 260/207/65 265/212/65
f 264/211/65 262/209/65 260/207/65
f 244/213/65 247/195/65 266/214/65
f 244/213/65 266/214/65 267/215/65
f 267/215/65 266/214/65 268/216/65
f 267/215/65 268/216/65 269/217/65
f 269/217/65 270/218/65 267/215/65
f 269/217/65 271/219/65 270/218/65
f 271/219/65 272/220/65 270/218/65
f 271/219/65 273/221/65 272/220/65
f 273/221/65 274/222/65 272/220/65
f 273/221/65 275/223/65 274/222/65
f 275/223/65 276/224/65 274/222/65
f 274/222/65 276/224/65 263/210/65
f 274/222/65 263/210/65 262/225/65
f 275/223/65 277/226/65 276/224/65
f 278/227/65 272/228/65 279/229/25
f 278/227/65 270/218/65 272/228/65
f 280/227/16 281/228/16 282/218/16
f 280/227/16 283/229/16 281/228/16
f 284/223/16 285/224/16 286/226/16
f 284/223/16 287/222/16 285/224/16
f 288/221/16 287/222/16 284/223/16
f 288/221/16 281/220/16 287/222/16
f 289/219/16 281/220/16 288/221/16
f 289/219/16 282/218/16 281/220/16
f 290/217/16 282/218/16 289/219/16
f 290/217/16 291/215/16 282/218/16
f 291/215/16 290/217/16 292/216/16
f 291/215/16 292/216/16 293/214/16
f 294/213/16 291/215/16 293/214/16
f 294/213/16 293/214/16 295/195/16
f 287/222/16 296/210/16 285/224/16
f 287/222/16 297/225/16 296/210/16
f 297/209/16 298/208/16 296/210/16
f 297/209/16 299/207/16 298/208/16
f 300/211/16 299/207/16 297/209/16
f 300/211/16 301/212/16 299/207/16
f 299/207/16 302/204/16 298/208/16
f 299/207/16 303/202/16 302/204/16
f 302/204/16 303/202/16 304/203/16
f 303/202/16 305/201/16 304/203/16
f 303/202/16 306/200/16 305/201/16
f 306/200/16 307/199/16 305/201/16
f 306/200/16 308/198/16 307/199/16
f 308/198/16 309/189/16 307/199/16
f 308/198/16 310/197/16 309/189/16
f 309/189/16 310/197/16 311/190/16
f 310/197/16 312/196/16 311/190/16
f 310/197/16 313/194/16 312/196/16
f 313/194/16 295/195/16 312/196/16
f 313/194/16 294/192/16 295/195/16
f 314/191/16 294/192/16 313/194/16
f 314/191/16 315/193/16 294/192/16
f 302/204/16 304/203/16 316/3/16
f 309/189/16 311/190/16 317/1/16
f 318/205/16 308/198/16 306/200/16
f 318/205/16 319/206/16 308/198/16
f 320/230/6 321/231/6 322/232/6
f 320/230/6 323/233/6 321/231/6
f 324/234/6 325/235/6 326/236/6
f 327/237/6 325/235/6 324/234/6
f 327/237/6 328/238/6 325/235/6
f 328/238/6 320/230/6 325/235/6
f 328/238/6 329/239/6 320/230/6
f 329/239/6 323/233/6 320/230/6
f 329/239/6 330/240/6 323/233/6
f 330/240/6 331/241/6 323/233/6
f 330/240/6 332/242/6 331/241/6
f 324/234/6 326/236/6 333/243/6
f 333/243/6 326/236/6 334/244/6
f 326/236/6 335/245/6 334/244/6
f 326/236/6 322/232/6 335/245/6
f 322/232/6 336/246/6 335/245/6
f 322/232/6 321/231/6 336/246/6
f 321/231/6 337/247/6 336/246/6
f 321/231/6 338/248/6 337/247/6
f 338/248/6 339/96/6 337/247/6
f 338/248/6 340/94/6 339/96/6
f 331/241/6 340/94/6 338/248/6
f 331/241/6 341/249/6 340/94/6
f 332/242/6 341/249/6 331/241/6
f 332/242/6 342/87/3 341/249/6
f 333/243/6 334/244/6 343/250/6
f 194/165/16 200/171/59 195/166/16
f 344/169/66 345/251/28 346/252/39
f 344/169/66 347/167/28 345/251/28
f 348/253/25 349/254/27 350/255/25
f 348/253/25 351/256/27 349/254/27
f 345/257/28 349/258/27 351/259/27
f 345/257/28 347/260/28 349/258/27
f 344/261/66 348/262/25 350/263/25
f 344/261/66 346/264/39 348/262/25
f 352/265/4 279/263/25 353/266/4
f 352/265/4 344/261/66 279/263/25
f 354/265/3 355/263/6 356/266/3
f 354/265/3 357/261/6 355/263/6
f 358/261/64 359/266/1 360/258/64
f 358/261/64 361/265/1 359/266/1
f 361/267/1 362/266/4 359/268/1
f 361/267/1 363/265/4 362/266/4
f 363/265/4 356/268/3 362/269/4
f 363/265/4 354/267/3 356/268/3
f 364/270/3 365/271/20 366/272/17
f 364/270/3 208/273/3 365/271/20
f 367/274/67 368/275/18 369/276/16
f 369/276/16 370/277/28 367/274/67
f 369/276/16 366/278/17 365/223/20
f 369/276/16 371/279/39 366/278/17
f 371/279/39 369/276/16 368/275/18
f 371/279/39 368/275/18 372/272/38
f 373/273/64 367/272/67 370/280/28
f 373/273/64 374/270/1 367/272/67
f 375/265/2 376/263/64 377/266/2
f 375/265/2 378/261/64 376/263/64
f 379/261/8 380/266/4 381/258/8
f 379/261/8 382/265/4 380/266/4
f 382/267/4 383/266/3 380/268/4
f 382/267/4 384/265/3 383/266/3
f 384/265/3 377/268/2 383/269/3
f 384/265/3 375/267/2 377/268/2
f 385/270/2 386/271/28 387/272/14
f 385/270/2 221/273/2 386/271/28
f 388/274/55 389/275/39 206/276/62
f 206/276/62 390/277/18 388/274/55
f 206/276/62 387/278/14 386/223/28
f 206/276/62 391/279/20 387/278/14
f 391/279/20 206/276/62 389/275/39
f 391/279/20 389/275/39 392/272/17
f 393/273/8 388/272/55 390/280/18
f 393/273/8 394/270/4 388/272/55
f 395/265/1 396/263/8 397/266/1
f 395/265/1 398/261/8 396/263/8
f 342/261/3 399/266/3 400/258/61
f 342/261/3 401/265/3 399/266/3
f 401/267/3 402/266/2 399/268/3
f 401/267/3 403/265/2 402/266/2
f 403/265/2 397/268/1 402/269/2
f 403/265/2 395/267/1 397/268/1
f 404/270/1 405/271/18 406/272/15
f 404/270/1 229/273/1 405/271/18
f 407/274/17 408/275/20 409/276/16
f 409/276/16 410/277/39 407/274/17
f 409/276/16 406/278/15 405/223/18
f 409/276/16 411/279/28 406/278/15
f 411/279/28 409/276/16 408/275/20
f 411/279/28 408/275/20 412/272/29
f 413/273/61 407/272/17 410/280/39
f 413/273/61 414/270/3 407/272/17
f 415/261/6 416/266/2 417/258/2
f 415/261/6 418/265/2 416/266/2
f 418/267/2 419/266/1 416/268/2
f 418/267/2 192/265/56 419/266/1
f 192/265/56 353/268/4 419/269/1
f 192/265/56 352/267/4 353/268/4
f 420/270/4 421/271/39 422/272/38
f 420/270/4 237/273/4 421/271/39
f 423/274/14 424/275/28 227/276/56
f 227/276/56 425/277/20 423/274/14
f 227/276/56 422/278/38 421/223/39
f 227/276/56 426/279/18 422/278/38
f 426/279/18 227/276/56 424/275/28
f 426/279/18 424/275/28 427/272/15
f 428/273/6 423/272/14 425/280/20
f 428/273/6 429/270/2 423/272/14
f 430/230/61 431/231/61 432/232/61
f 430/230/61 433/233/61 431/231/61
f 434/234/61 435/236/61 436/243/61
f 434/234/61 437/235/61 435/236/61
f 438/237/61 437/235/61 434/234/61
f 438/237/61 439/238/61 437/235/61
f 439/238/61 430/230/61 437/235/61
f 439/238/61 440/239/61 430/230/61
f 440/239/61 433/233/61 430/230/61
f 440/239/61 441/240/61 433/233/61
f 441/240/61 442/241/61 433/233/61
f 441/240/61 443/242/61 442/241/61
f 436/243/61 444/244/61 445/250/61
f 436/243/61 435/236/61 444/244/61
f 435/236/61 446/245/61 444/244/61
f 435/236/61 432/232/61 446/245/61
f 432/232/61 447/246/61 446/245/61
f 432/232/61 431/231/61 447/246/61
f 431/231/61 448/247/61 447/246/61
f 431/231/61 449/248/61 448/247/61
f 449/248/61 450/96/61 448/247/61
f 449/248/61 451/94/61 450/96/61
f 442/241/61 451/94/61 449/248/61
f 442/241/61 452/249/61 451/94/61
f 443/242/61 452/249/61 442/241/61
f 443/242/61 453/87/61 452/249/61
f 454/230/64 455/231/64 456/232/64
f 454/230/64 457/233/64 455/231/64
f 458/234/64 459/236/64 460/243/64
f 458/234/64 461/235/64 459/236/64
f 462/237/64 461/235/64 458/234/64
f 462/237/64 463/238/64 461/235/64
f 463/238/64 454/230/64 461/235/64
f 463/238/64 464/239/64 454/230/64
f 464/239/64 457/233/64 454/230/64
f 464/239/64 465/240/64 457/233/64
f 465/240/64 466/241/64 457/233/64
f 465/240/64 467/242/64 466/241/64
f 460/243/64 468/244/64 469/250/64
f 460/243/64 459/236/64 468/244/64
f 459/236/64 470/245/64 468/244/64
f 459/236/64 456/232/64 470/245/64
f 456/232/64 471/246/64 470/245/64
f 456/232/64 455/231/64 471/246/64
f 455/231/64 472/247/64 471/246/64
f 455/231/64 473/248/64 472/247/64
f 473/248/64 417/96/2 472/247/64
f 473/248/64 474/94/64 417/96/2
f 466/241/64 474/94/64 473/248/64
f 466/241/64 475/249/64 474/94/64
f 467/242/64 475/249/64 466/241/64
f 467/242/64 476/87/64 475/249/64
f 477/186/31 189/187/37 190/4/55
f 477/186/31 215/188/49 189/187/37
f 217/4/63 215/34/49 477/187/31
f 217/4/63 216/162/13 215/34/49
f 217/186/63 190/187/55 193/4/57
f 217/186/63 477/188/31 190/187/55
f 478/281/16 479/185/16 480/178/16
f 478/281/16 481/282/16 479/185/16
f 481/282/16 482/186/16 479/185/16
f 481/282/16 483/283/16 482/186/16
f 483/283/16 484/284/16 482/186/16
f 483/283/16 485/285/16 484/284/16
f 485/285/16 480/178/16 484/284/16
f 485/285/16 478/281/16 480/178/16
f 427/272/15 486/270/1 420/286/4
f 420/286/4 426/287/18 427/272/15
f 420/286/4 422/274/38 426/287/18
f 186/159/16 203/174/60 187/160/16
f 423/274/14 429/286/2 486/270/1
f 486/270/1 424/275/28 423/274/14
f 486/270/1 427/272/15 424/275/28
f 191/163/16 197/168/58 192/164/56
f 412/272/29 487/270/2 404/286/1
f 404/286/1 411/287/28 412/272/29
f 404/286/1 406/274/15 411/287/28
f 367/274/67 374/286/1 488/270/4
f 488/270/4 368/275/18 367/274/67
f 488/270/4 372/272/38 368/275/18
f 407/274/17 414/286/3 487/270/2
f 487/270/2 408/275/20 407/274/17
f 487/270/2 412/272/29 408/275/20
f 372/272/38 488/270/4 364/286/3
f 364/286/3 371/287/39 372/272/38
f 364/286/3 366/274/17 371/287/39
f 392/272/17 489/270/3 385/286/2
f 385/286/2 391/287/20 392/272/17
f 385/286/2 387/274/14 391/287/20
f 388/274/55 394/286/4 489/270/3
f 489/270/3 389/275/39 388/274/55
f 489/270/3 392/272/17 389/275/39
f 490/161/38 491/290/29 492/291/67
f 490/161/38 493/292/37 491/290/29
f 494/293/2 492/291/67 491/290/29
f 494/293/2 495/294/1 492/291/67
f 496/293/3 491/291/29 493/290/37
f 496/293/3 494/294/2 491/291/29
f 497/293/4 493/291/37 490/290/38
f 497/293/4 496/294/3 493/291/37
f 495/293/1 490/291/38 492/290/67
f 495/293/1 497/294/4 490/291/38
usemtl mcbox_window
f 45/45/8 41/42/8 40/41/8
f 45/45/8 43/43/8 41/42/8
f 133/101/8 140/105/8 138/103/8
f 133/101/8 132/100/8 140/105/8
f 461/288/64 456/232/64 459/236/64
f 461/288/64 454/289/64 456/232/64
f 457/233/64 473/248/64 455/231/64
f 457/233/64 466/241/64 473/248/64
f 325/288/6 322/232/6 326/236/6
f 325/288/6 320/289/6 322/232/6
f 323/233/6 338/248/6 321/231/6
f 323/233/6 331/241/6 338/248/6
f 437/288/61 432/232/61 435/236/61
f 437/288/61 430/289/61 432/232/61
f 433/233/61 449/248/61 431/231/61
f 433/233/61 442/241/61 449/248/61
