# Blender 3.6.5
# www.blender.org
mtllib spaceshipphysfix.mtl
o exteriordoor_physics
v 25.832745 95.829216 13.682223
v 25.832781 2.479431 13.681717
v -25.832682 95.829201 13.682472
v -25.832647 2.479413 13.681966
v -25.832645 95.829155 21.277479
v 25.832783 95.829170 21.277227
v 25.832817 2.479390 21.276720
v -25.832613 2.479372 21.276972
vn 0.5773 0.5774 -0.5773
vn 0.5773 -0.5773 -0.5774
vn -0.5774 0.5774 -0.5773
vn -0.5774 -0.5773 -0.5774
vn -0.5773 0.5773 0.5774
vn 0.5774 0.5773 0.5774
vn 0.5774 -0.5774 0.5773
vn -0.5773 -0.5774 0.5773
vt 0.000000 0.000000
s 1
usemtl __phy
f 1/1/1 2/1/2 3/1/3
f 3/1/3 2/1/2 4/1/4
f 1/1/1 5/1/5 6/1/6
f 1/1/1 3/1/3 5/1/5
f 1/1/1 7/1/7 2/1/2
f 1/1/1 6/1/6 7/1/7
f 2/1/2 7/1/7 8/1/8
f 2/1/2 8/1/8 4/1/4
f 3/1/3 4/1/4 8/1/8
f 3/1/3 8/1/8 5/1/5
f 8/1/8 6/1/6 5/1/5
f 8/1/8 7/1/7 6/1/6
o exterior_physics
v 25.150713 93.838509 13.596694
v -25.150713 95.575035 13.596696
v -25.150713 93.838509 13.596696
v 25.150713 95.575035 13.596694
v 25.150713 93.838509 -20.015121
v -25.150713 93.838509 -20.015121
v 25.150713 95.575035 -20.015121
v -25.150713 95.575035 -20.015121
v -26.141108 2.518333 -1.315453
v -26.141106 2.518333 -20.703188
v -26.141102 0.005241 -20.703184
v -26.141108 0.005241 13.627182
v 26.141102 2.518333 -1.315456
v 26.141102 2.518333 -20.703199
v 26.141102 0.005241 13.627180
v 26.141102 0.005241 -20.703201
v -26.330462 95.580666 13.680609
v -26.330462 95.580666 -21.167637
v -26.330462 2.416924 13.680609
v -26.330462 2.416924 -21.167637
v -24.330463 95.580666 -21.167637
v -24.330463 95.580666 13.680609
v -24.330463 2.416924 13.680609
v -24.330463 2.416924 -21.167637
v 24.534756 2.416924 -21.167645
v 24.534756 2.416924 13.680606
v 24.534756 95.580688 -21.167645
v 24.534756 95.580688 13.680606
v 26.534754 2.416924 13.680606
v 26.534754 2.416924 -21.167645
v 26.534754 95.580688 13.680606
v 26.534754 95.580688 -21.167645
v 24.513906 2.416924 -21.240583
v -24.628204 2.416924 -21.240580
v 24.513906 95.580688 -21.240583
v -24.628204 95.580688 -21.240580
v -24.628204 2.416924 -19.240583
v 24.513906 2.416924 -19.240587
v -24.628204 95.580688 -19.240583
v 24.513906 95.580688 -19.240587
vn 0.5774 -0.5773 0.5774
vn -0.5774 0.5773 0.5774
vn -0.5773 -0.5774 0.5774
vn 0.5773 0.5774 0.5774
vn 0.5774 -0.5774 -0.5774
vn -0.5773 -0.5773 -0.5774
vn 0.5773 0.5773 -0.5774
vn -0.5774 0.5774 -0.5774
vn -0.6888 0.7224 0.0603
vn -0.5774 0.5773 -0.5774
vn -0.5773 -0.5774 -0.5774
vn -0.5375 -0.0702 0.8404
vn 0.6888 0.7224 0.0603
vn 0.5774 0.5774 -0.5773
vn 0.5375 -0.0702 0.8404
vn 0.5774 -0.5773 -0.5774
vn -0.5774 0.5774 0.5774
vn -0.5774 0.5774 -0.5773
vn -0.5774 -0.5774 0.5773
vn -0.5774 -0.5774 -0.5774
vn 0.5774 0.5774 -0.5774
vn 0.5774 0.5774 0.5773
vn 0.5774 -0.5774 0.5774
vn 0.5774 -0.5774 -0.5773
vn -0.5774 -0.5774 0.5774
vn 0.5774 0.5774 0.5774
vt 0.000000 0.000000
s 1
usemtl __phy
f 9/2/9 10/2/10 11/2/11
f 9/2/9 12/2/12 10/2/10
f 9/2/9 11/2/11 13/2/13
f 13/2/13 11/2/11 14/2/14
f 13/2/13 12/2/12 9/2/9
f 13/2/13 15/2/15 12/2/12
f 14/2/14 11/2/11 16/2/16
f 16/2/16 11/2/11 10/2/10
f 13/2/13 14/2/14 15/2/15
f 15/2/15 14/2/14 16/2/16
f 15/2/15 16/2/16 12/2/12
f 16/2/16 10/2/10 12/2/12
f 17/2/17 18/2/18 19/2/19
f 17/2/17 19/2/19 20/2/20
f 17/2/17 21/2/21 18/2/18
f 21/2/21 22/2/22 18/2/18
f 17/2/17 23/2/23 21/2/21
f 17/2/17 20/2/20 23/2/23
f 18/2/18 22/2/22 19/2/19
f 19/2/19 22/2/22 24/2/24
f 21/2/21 24/2/24 22/2/22
f 21/2/21 23/2/23 24/2/24
f 19/2/19 24/2/24 23/2/23
f 19/2/19 23/2/23 20/2/20
f 25/2/25 26/2/26 27/2/27
f 27/2/27 26/2/26 28/2/28
f 25/2/25 29/2/29 26/2/26
f 25/2/25 30/2/30 29/2/29
f 27/2/27 30/2/30 25/2/25
f 27/2/27 31/2/31 30/2/30
f 28/2/28 26/2/26 32/2/32
f 32/2/32 26/2/26 29/2/29
f 27/2/27 28/2/28 31/2/31
f 31/2/31 28/2/28 32/2/32
f 29/2/29 31/2/31 32/2/32
f 29/2/29 30/2/30 31/2/31
f 33/2/28 34/2/33 35/2/16
f 35/2/16 34/2/33 36/2/25
f 34/2/33 33/2/28 37/2/31
f 37/2/31 33/2/28 38/2/13
f 34/2/33 39/2/34 36/2/25
f 34/2/33 37/2/31 39/2/34
f 33/2/28 35/2/16 38/2/13
f 38/2/13 35/2/16 40/2/29
f 36/2/25 40/2/29 35/2/16
f 36/2/25 39/2/34 40/2/29
f 40/2/29 37/2/31 38/2/13
f 40/2/29 39/2/34 37/2/31
f 41/2/13 42/2/28 43/2/29
f 43/2/29 42/2/28 44/2/16
f 42/2/28 41/2/13 45/2/33
f 45/2/33 41/2/13 46/2/31
f 44/2/16 42/2/28 47/2/25
f 47/2/25 42/2/28 45/2/33
f 43/2/29 46/2/31 41/2/13
f 43/2/29 48/2/34 46/2/31
f 44/2/16 48/2/34 43/2/29
f 44/2/16 47/2/25 48/2/34
f 46/2/31 47/2/25 45/2/33
f 46/2/31 48/2/34 47/2/25
