# Blender 3.6.5
# www.blender.org
mtllib vending.mtl
o exterior
v 25.201200 0.004475 12.758198
v -24.872499 0.004475 -3.945298
v 25.201200 0.004475 -3.945302
v -24.872499 0.004475 12.758202
v -25.970600 95.483475 -3.841998
v 25.947100 95.483475 -3.842002
v -25.970600 95.483475 -21.423397
v -7.835202 95.483475 -21.423401
v 13.255598 95.483475 -21.423401
v 25.947100 95.483475 -21.423405
v 25.201200 2.733074 12.758198
v -24.872499 2.733074 12.758202
v 25.947100 2.637875 -15.805302
v 13.255598 95.483475 -15.805302
v 13.255598 2.637875 -15.805302
v 25.947100 95.483475 -15.805302
v -25.970600 2.637875 -3.841898
v 25.947100 2.637875 13.739498
v -25.970600 2.637875 13.739502
v 25.947100 2.637875 -3.841902
v -25.970600 2.637875 -15.805298
v -7.835200 95.483475 -15.805300
v -25.970600 95.483475 -15.805298
v -7.835200 2.637875 -15.805300
v -7.835202 2.637875 -21.423401
v -25.970600 2.637875 -21.423397
v 25.947100 95.483475 13.739498
v -24.554899 93.958076 13.739502
v 24.531500 93.959274 13.739498
v -25.970600 95.483475 13.739502
v 13.255598 2.637875 -21.423401
v 25.947100 2.637875 -21.423405
v -24.872499 0.004375 -20.648796
v 25.201200 0.004375 -20.648804
v -24.872499 2.733074 -20.648796
v 25.201200 2.733074 -20.648804
v -24.554899 93.958870 -18.503996
v 24.531500 93.958076 -18.504004
v -24.554899 4.138775 13.739502
v 24.531500 4.138775 -18.504004
v -24.554899 4.138775 -18.503996
v 24.531500 4.138775 13.739498
vn 0.5773 -0.5774 0.5774
vn -0.7071 -0.7071 -0.0000
vn 0.7071 -0.7071 -0.0000
vn -0.5774 -0.5774 0.5774
vn -0.7071 0.7071 -0.0000
vn 0.7071 0.7071 -0.0000
vn -0.5774 0.5774 -0.5774
vn -0.0000 0.7071 -0.7071
vn 0.5774 0.5773 -0.5774
vn 0.7071 -0.0000 0.7071
vn -0.7071 -0.0000 0.7071
vn -0.0000 -0.0000 1.0000
vn 0.5774 -0.5774 0.5774
vn -0.5774 -0.5774 0.5773
vn -0.0000 -0.7071 -0.7071
vn -0.5774 -0.5774 -0.5774
vn 0.5773 0.5774 0.5774
vn 0.3015 -0.3015 0.9045
vn -0.3015 -0.3015 0.9045
vn -0.5774 0.5774 0.5774
vn 0.5774 -0.5774 -0.5774
vn -0.5774 -0.5774 -0.5773
vn 0.5773 -0.5774 -0.5773
vn -0.7071 -0.0000 -0.7071
vn 0.7071 -0.0000 -0.7071
vn 0.3015 0.3015 0.9045
vn -0.3015 0.3015 0.9045
vt 0.995200 0.793500
vt 0.817600 0.384100
vt 0.817600 0.793500
vt 0.995200 0.384100
vt 0.799500 0.204600
vt 0.799500 0.686700
vt 0.656200 0.204600
vt 0.656200 0.373000
vt 0.656200 0.568900
vt 0.656200 0.686700
vt 0.784300 0.308900
vt 0.762400 0.718600
vt 0.762400 0.308900
vt 0.784300 0.718600
vt 0.710900 0.077500
vt 0.618600 0.924100
vt 0.618600 0.077500
vt 0.710900 0.924100
vt 0.995200 0.013100
vt 0.852200 0.420000
vt 0.852200 0.013100
vt 0.995200 0.420000
vt 0.642500 0.077500
vt 0.808800 0.924100
vt 0.642500 0.924100
vt 0.808800 0.077500
vt 0.622700 0.000500
vt 0.809800 0.999500
vt 0.622700 0.999500
vt 0.809800 0.000500
vt 0.932600 0.891700
vt 0.932600 0.387300
vt 0.948100 0.372800
vt 0.948100 0.906200
vt 0.808000 0.077500
vt 0.615900 0.924100
vt 0.808000 0.924100
vt 0.615900 0.077500
vt 0.995200 0.464600
vt 0.817800 0.874000
vt 0.817800 0.464600
vt 0.995200 0.874000
vt 0.954200 0.473800
vt 0.932300 0.064100
vt 0.932300 0.473800
vt 0.954200 0.064100
vt 0.000000 0.000000
vt 0.816300 0.467700
vt 0.816300 0.011700
vt 0.829300 0.024200
vt 0.829300 0.455200
vt 0.916800 0.032400
vt 0.931300 0.047600
vt 0.931300 0.959400
vt 0.916800 0.974900
vt 0.971700 0.047600
vt 0.986300 0.032400
vt 0.986300 0.974900
vt 0.971700 0.959400
vt 0.634200 0.036400
vt 0.993900 0.970000
vt 0.634200 0.970000
vt 0.993900 0.036400
vt 0.764700 0.204600
vt 0.621700 0.686700
vt 0.621700 0.204600
vt 0.764700 0.686700
vt 0.784300 0.063600
vt 0.762400 0.186300
vt 0.762400 0.063600
vt 0.762400 0.596200
vt 0.762400 0.473800
vt 0.784300 0.473800
vt 0.960000 0.013100
vt 0.960000 0.155300
vt 0.816700 0.013100
vt 0.960000 0.320600
vt 0.960000 0.420000
vt 0.816700 0.420000
s 1
usemtl SodaMachine01a
f 1/1/1 2/2/2 3/3/3
f 1/1/1 4/4/4 2/2/2
f 5/5/5 6/6/6 7/7/7
f 8/8/8 7/7/7 6/6/6
f 9/9/8 8/8/8 6/6/6
f 10/10/9 9/9/8 6/6/6
f 11/11/10 4/12/4 1/13/1
f 11/11/10 12/14/11 4/12/4
f 13/15/12 14/16/12 15/17/12
f 13/15/12 16/18/12 14/16/12
f 17/19/2 18/20/13 19/21/14
f 17/19/2 20/22/3 18/20/13
f 21/23/12 22/24/12 23/25/12
f 21/23/12 24/26/12 22/24/12
f 25/26/15 7/25/7 8/24/8
f 25/26/15 26/23/16 7/25/7
f 18/27/13 6/28/6 27/29/17
f 18/27/13 20/30/3 6/28/6
f 28/31/18 29/32/19 27/33/17
f 27/33/17 30/34/20 28/31/18
f 31/35/15 8/36/8 9/37/8
f 31/35/15 25/38/15 8/36/8
f 32/15/21 9/16/8 10/18/9
f 32/15/21 31/17/15 9/16/8
f 3/39/3 33/40/22 34/41/23
f 3/39/3 2/42/2 33/40/22
f 35/43/24 34/44/23 33/45/22
f 35/43/24 36/46/25 34/44/23
f 17/30/2 30/29/20 5/28/5
f 17/30/2 19/27/14 30/29/20
f 29/47/19 37/47/3 38/47/2
f 29/47/19 28/47/18 37/47/3
f 26/30/16 5/29/5 7/28/7
f 26/30/16 17/27/2 5/29/5
f 39/47/26 40/47/5 41/47/6
f 39/47/26 42/47/27 40/47/5
f 19/48/14 18/49/13 42/50/27
f 42/50/27 39/51/26 19/48/14
f 24/38/12 14/37/12 22/36/12
f 24/38/12 15/35/12 14/37/12
f 19/52/14 39/53/26 28/54/18
f 28/54/18 30/55/20 19/52/14
f 42/56/27 18/57/13 27/58/17
f 27/58/17 29/59/19 42/56/27
f 20/27/3 10/28/9 6/29/6
f 20/27/3 32/30/21 10/28/9
f 40/60/5 29/61/19 38/62/2
f 40/60/5 42/63/27 29/61/19
f 30/64/20 6/65/6 5/66/5
f 30/64/20 27/67/17 6/65/6
f 39/63/26 37/62/3 28/61/18
f 39/63/26 41/60/6 37/62/3
f 36/68/25 11/11/10 1/13/1
f 1/13/1 3/69/3 36/68/25
f 3/69/3 34/70/23 36/68/25
f 2/71/2 4/12/4 12/14/11
f 33/72/22 2/71/2 12/14/11
f 12/14/11 35/73/24 33/72/22
f 26/74/16 25/75/15 17/76/2
f 25/75/15 31/77/15 17/76/2
f 31/77/15 32/78/21 17/76/2
f 17/76/2 32/78/21 20/79/3
o door
v -11.472399 23.209475 13.616401
v -11.472399 17.324476 20.310600
v -4.382599 17.324476 20.554399
v -4.376400 23.209475 13.616400
v 2.893902 17.324476 20.356899
v 2.893900 23.209475 13.616400
v 5.632700 27.328775 20.282501
v 2.893902 27.329075 20.356899
v 5.632700 3.466274 20.282499
v 14.133501 3.466274 18.772398
v -4.382599 3.466274 20.554399
v -13.805399 3.466274 20.230398
v -13.805399 27.328775 20.230301
v -22.199699 27.328775 18.772404
v -22.199699 49.041481 18.772402
v -24.698400 49.041477 18.100403
v -24.698400 71.828972 18.100403
v -22.199699 71.828972 18.772402
v -24.698400 95.120674 18.100403
v -11.472399 27.329075 20.310600
v -13.805399 49.041477 20.230400
v -4.382599 27.329376 20.554401
v -22.199699 3.466274 18.772402
v -24.698400 27.328775 18.100403
v -24.698400 3.466274 18.100401
v -22.199699 95.120674 18.772402
v -13.805399 71.828972 20.230400
v -4.382599 49.041477 20.554399
v 5.632700 49.041477 20.282499
v 14.133501 27.328775 18.772400
v 15.929201 3.466274 18.072397
v 15.929201 27.328775 18.072399
v 14.133501 49.041481 18.772400
v 15.929201 49.041477 18.072399
v 14.133501 71.828972 18.772400
v 15.929201 71.828972 18.072399
v 14.133501 95.120674 18.772400
v 15.929201 95.120674 18.072399
v 5.632700 95.120674 20.282499
v 5.632700 71.828972 20.282499
v -4.382599 71.828972 20.554399
v -13.805399 95.120674 20.230301
v -4.382599 95.120674 20.554399
v -4.379799 26.542376 20.328400
v 2.428202 27.393375 20.050398
v 2.428202 26.542376 20.050400
v -4.379799 27.393375 20.328398
v -11.187899 26.542376 20.050400
v -11.187899 27.393375 20.050398
v -4.379799 17.267775 20.328400
v 2.428202 18.120375 20.050400
v 2.428202 17.267775 20.050400
v -4.379799 18.118876 20.328400
v -11.187899 17.267775 20.050400
v -11.187899 18.120375 20.050400
v 17.308100 95.987480 13.616399
v -4.376400 27.329376 13.616400
v -4.376400 95.987480 13.616400
v 2.893900 27.329376 13.616400
v 17.308100 2.637875 13.616399
v -4.376400 2.637875 13.616400
v 15.897100 4.138676 16.971300
v 15.897100 94.462181 18.652798
v 15.897100 94.462181 16.971298
v 15.897100 4.138676 18.652901
v -26.060801 95.987572 13.616401
v -26.060801 94.462181 18.652802
v -26.060801 95.987572 18.652903
v -26.060801 94.462181 13.616401
v -26.060801 4.138676 13.616401
v -26.060801 4.138676 18.652903
v -11.187899 18.120375 21.145500
v -11.187899 26.542376 21.145500
v -11.472399 27.329376 13.616401
v -26.060801 2.637875 13.616401
v -24.645201 4.138676 18.652903
v -22.175800 4.138775 19.364101
v -24.645201 4.138775 16.971302
v -13.894399 4.138676 20.690901
v -4.374098 4.138676 21.049999
v 5.700401 4.138676 20.690901
v 14.191401 4.138775 19.364100
v 26.060801 95.987480 17.313099
v 26.060801 95.987480 13.616399
v 17.308100 95.987480 17.313101
v -4.379799 27.393377 21.423399
v -11.187899 27.393375 21.145498
v -4.379799 26.542377 21.423401
v 2.428202 27.393375 21.145498
v 2.428202 26.542376 21.145500
v 3.428202 26.542276 21.052099
v 3.428202 27.393375 21.052099
v 2.428202 18.120375 21.145500
v 3.428202 18.120375 21.052099
v 3.428202 17.267775 21.052099
v 2.428202 17.267775 21.145500
v 17.312700 2.637875 13.616399
v 17.312700 4.138676 18.652901
v 17.312700 2.637875 18.652901
v 17.312700 4.138676 13.616399
v 17.312700 94.462181 13.616399
v 17.312700 94.462181 18.652798
v 17.312700 95.987572 18.652901
v 17.312700 95.987572 13.616399
v 26.060801 2.637875 13.616299
v -4.379799 18.118877 21.423401
v -26.060801 2.637875 18.652905
v -24.645201 2.637875 18.652905
v -22.175800 2.637875 19.364101
v -13.894399 2.637875 20.690903
v -4.374098 2.637875 21.049999
v 5.700401 2.637875 20.690903
v 14.191401 2.637875 19.364101
v 15.897100 2.637875 18.652901
v -24.645201 94.462181 18.652802
v -24.645201 95.987572 18.652903
v -22.175800 95.987572 19.364101
v -22.175800 94.463676 19.364101
v -13.894399 95.987480 20.690901
v -13.894399 94.463676 20.690899
v -4.374098 95.987480 21.049999
v -4.374098 94.463676 21.049999
v 5.700401 95.987480 20.690901
v 5.700401 94.463676 20.690899
v 14.191401 95.987572 19.364100
v 14.191401 94.463676 19.364098
v 15.897100 95.987572 18.652901
v 26.060801 2.637875 17.313099
v 17.308100 2.637875 17.313101
v -11.841599 23.143576 20.316700
v 2.915800 27.054575 20.316700
v 2.915800 23.143576 20.316700
v -11.841599 27.054575 20.316700
v 2.915800 23.143576 20.924700
v -11.841599 23.143576 20.924700
v -11.472499 23.113775 13.673301
v -5.068600 27.444376 13.673300
v -5.068600 23.113775 13.673300
v -11.472499 27.444376 13.673301
v -5.068600 22.457876 14.385100
v -5.068600 27.444376 14.385100
v -11.472499 27.444376 14.385101
v -11.472499 22.457876 14.385101
v 2.915800 27.054575 20.924702
v -11.841599 27.054575 20.924702
v 3.428202 27.393375 19.957098
v -12.187899 27.393375 19.957098
v -12.187899 27.393375 21.052099
v -24.645201 94.462975 16.971302
v -11.187899 17.267775 21.145500
v -4.379799 17.267776 21.423401
v -12.187899 17.267775 21.052099
v -12.187899 17.267775 19.957100
v 3.428202 17.267775 19.957100
v -24.645201 2.637875 13.616401
v 15.897100 2.637875 13.616399
v -24.645201 95.987572 13.616401
v 15.897100 95.987572 13.616399
v -12.187899 18.120375 19.957100
v -12.187899 26.542376 19.957100
v -12.187899 18.120375 21.052099
v -12.187899 26.542276 21.052099
v 3.428202 18.120375 19.957100
v 3.428202 26.542376 19.957100
vn 0.5079 0.2643 -0.8198
vn 0.1100 0.2024 0.9731
vn 0.0012 0.4191 0.9079
vn -0.0000 0.9104 -0.4137
vn -0.1209 0.2044 0.9714
vn -0.5095 0.2634 -0.8191
vn 0.1013 -0.0000 0.9949
vn -0.2786 -0.3085 0.9095
vn 0.2703 -0.0000 0.9628
vn -0.0036 -0.0000 1.0000
vn -0.1030 -0.0000 0.9947
vn -0.2156 -0.0000 0.9765
vn -0.2597 -0.0000 0.9657
vn 0.2724 -0.3104 0.9107
vn -0.0026 -0.7002 0.7139
vn 0.3632 -0.0000 0.9317
vn -0.0000 -0.7164 -0.6977
vn -0.0469 0.7130 -0.6996
vn -0.3633 -0.2885 -0.8859
vn -0.0000 0.7164 -0.6977
vn 0.3633 -0.2885 -0.8859
vn 0.0469 0.7130 -0.6996
vn -0.3634 0.2885 -0.8858
vn -0.0469 -0.7130 -0.6996
vn 0.0469 -0.7130 -0.6996
vn 0.3634 0.2885 -0.8858
vn -0.0000 0.4472 -0.8944
vn -0.0000 -0.7071 -0.7071
vn -0.0000 -0.0000 -1.0000
vn -0.3015 -0.3015 -0.9045
vn -0.0000 -0.4472 -0.8944
vn -0.7071 0.7071 -0.0000
vn -0.1900 -0.3865 0.9025
vn -0.7071 -0.7071 -0.0000
vn -0.1899 0.3864 0.9026
vn -0.5774 0.5774 -0.5773
vn -0.7071 -0.0000 0.7071
vn -0.5773 0.5773 0.5774
vn -1.0000 -0.0000 -0.0000
vn 0.2376 0.3152 0.9188
vn 0.2376 -0.3152 0.9188
vn 0.3015 -0.3015 -0.9045
vn -0.5774 -0.5774 -0.5774
vn 0.2213 0.3606 0.9061
vn -0.1569 0.6937 0.7030
vn 0.7071 0.7071 -0.0000
vn -0.0707 0.6937 0.7168
vn -0.0007 0.6989 0.7152
vn 0.0685 0.6939 0.7168
vn 0.1988 0.6811 0.7046
vn 0.5774 0.5774 0.5774
vn 0.5774 0.5774 -0.5774
vn -0.0000 0.7071 0.7071
vn -0.0000 0.6980 0.7161
vn -0.0477 0.7013 0.7113
vn -0.0000 -0.6980 0.7161
vn 0.0477 0.7013 0.7113
vn -0.2376 -0.3152 0.9188
vn 0.7393 -0.0000 0.6734
vn 0.6009 0.5824 0.5474
vn -0.2376 0.3152 0.9188
vn 0.6009 -0.5824 0.5474
vn 0.0477 -0.7013 0.7113
vn 0.7071 -0.7071 -0.0000
vn 0.7071 -0.0000 0.7071
vn 0.5774 -0.5774 0.5774
vn 1.0000 -0.0000 -0.0000
vn 0.5773 0.5773 0.5774
vn 0.5773 -0.5773 -0.5774
vn -0.5774 -0.5774 0.5774
vn -0.0940 -0.7400 0.6661
vn -0.1569 -0.6937 0.7030
vn -0.0707 -0.6937 0.7168
vn -0.0007 -0.6989 0.7152
vn 0.0685 -0.6939 0.7168
vn 0.1988 -0.6811 0.7047
vn 0.1289 -0.7541 0.6440
vn 0.2217 -0.3607 0.9059
vn -0.0940 0.7399 0.6661
vn -0.1569 -0.6935 0.7031
vn 0.1988 0.6811 0.7047
vn 0.1987 -0.6805 0.7053
vn 0.1289 0.7540 0.6441
vn -0.0000 -0.7071 0.7071
vn 0.8275 -0.0000 -0.5614
vn -0.0000 0.7071 -0.7071
vn 0.4655 -0.0000 0.8850
vn -0.0000 -0.0000 1.0000
vn 0.5521 0.5726 -0.6060
vn -0.5521 0.5726 -0.6060
vn -0.6009 0.5824 0.5474
vn 0.7071 -0.7071 -0.0001
vn -0.0477 -0.7013 0.7113
vn -0.6009 -0.5824 0.5474
vn -0.5521 -0.5726 -0.6060
vn 0.5521 -0.5726 -0.6060
vn -0.0000 -1.0000 -0.0000
vn -0.0000 1.0000 -0.0000
vn -0.6735 -0.0000 -0.7392
vn -0.7393 -0.0000 0.6734
vn 0.6735 -0.0000 -0.7392
vt 0.865800 0.049000
vt 0.953800 0.049000
vt 0.956300 0.121900
vt 0.865800 0.121900
vt 0.954200 0.196600
vt 0.865800 0.196600
vt 0.377100 0.267700
vt 0.344500 0.265800
vt 0.344500 0.159800
vt 0.377100 0.014800
vt 0.478100 0.014800
vt 0.258100 0.014800
vt 0.258100 0.159800
vt 0.173800 0.159800
vt 0.146100 0.014800
vt 0.146100 0.265800
vt 0.046400 0.267700
vt 0.046400 0.497700
vt 0.016700 0.497700
vt 0.016700 0.739200
vt 0.046400 0.739200
vt 0.016700 0.986000
vt 0.173800 0.265800
vt 0.146100 0.497700
vt 0.258100 0.265800
vt 0.046400 0.014800
vt 0.016700 0.267700
vt 0.016700 0.014800
vt 0.046400 0.986000
vt 0.146100 0.739200
vt 0.258100 0.497700
vt 0.377100 0.497700
vt 0.478100 0.267700
vt 0.498700 0.014800
vt 0.498700 0.267700
vt 0.478100 0.497700
vt 0.498700 0.497700
vt 0.478100 0.739200
vt 0.498700 0.739200
vt 0.478100 0.986000
vt 0.498700 0.986000
vt 0.377100 0.986000
vt 0.377100 0.739200
vt 0.258100 0.739200
vt 0.146100 0.986000
vt 0.258100 0.986000
vt 0.258100 0.258000
vt 0.341700 0.261200
vt 0.341700 0.258000
vt 0.258100 0.261200
vt 0.174800 0.258000
vt 0.174800 0.261200
vt 0.258100 0.160400
vt 0.341700 0.168000
vt 0.341700 0.160400
vt 0.258100 0.168000
vt 0.174800 0.160400
vt 0.174800 0.168000
vt 0.994800 0.999500
vt 0.816900 0.264700
vt 0.816900 0.999500
vt 0.876600 0.264700
vt 0.994800 0.000500
vt 0.876600 0.220700
vt 0.816900 0.220700
vt 0.816900 0.000500
vt 0.499000 0.021900
vt 0.499000 0.979000
vt 0.684700 0.405800
vt 0.730200 0.391000
vt 0.730200 0.405800
vt 0.684700 0.391000
vt 0.622100 0.016600
vt 0.672200 0.983200
vt 0.622100 0.983200
vt 0.672200 0.016600
vt 0.640900 0.501900
vt 0.710100 0.569700
vt 0.640900 0.567300
vt 0.781200 0.567700
vt 0.710200 0.501900
vt 0.781200 0.501900
vt 0.814700 0.000500
vt 0.993800 0.220700
vt 0.993800 0.000500
vt 0.934400 0.220700
vt 0.934400 0.264700
vt 0.814700 0.999500
vt 0.993800 0.999500
vt 0.993800 0.264700
vt 0.017300 0.021900
vt 0.046700 0.021900
vt 0.145000 0.021900
vt 0.258200 0.021900
vt 0.377900 0.021900
vt 0.478700 0.021900
vt 0.769400 0.524600
vt 0.729000 0.614600
vt 0.769400 0.614600
vt 0.729000 0.524600
vt 0.350200 0.258000
vt 0.350200 0.261200
vt 0.350200 0.168000
vt 0.350200 0.160400
vt 0.515800 0.006000
vt 0.515800 0.021900
vt 0.515800 0.979000
vt 0.515800 0.995200
vt 0.632400 0.006000
vt 0.724100 0.995200
vt 0.724100 0.006000
vt 0.632400 0.995200
vt 0.000500 0.006000
vt 0.000500 0.021900
vt 0.017300 0.006000
vt 0.046700 0.006000
vt 0.145000 0.006000
vt 0.258200 0.006000
vt 0.377900 0.006000
vt 0.478700 0.006000
vt 0.499000 0.006000
vt 0.017300 0.979000
vt 0.000500 0.979000
vt 0.017300 0.995200
vt 0.000500 0.995200
vt 0.046700 0.995200
vt 0.046700 0.979000
vt 0.145000 0.995200
vt 0.145000 0.979000
vt 0.258200 0.995200
vt 0.258200 0.979000
vt 0.377900 0.995200
vt 0.377900 0.979000
vt 0.478700 0.995200
vt 0.478700 0.979000
vt 0.499000 0.995200
vt 0.607400 0.006000
vt 0.607400 0.995200
vt 0.954200 0.174200
vt 0.885000 0.131900
vt 0.954200 0.071400
vt 0.885000 0.174200
vt 0.885000 0.113700
vt 0.953800 0.071400
vt 0.953800 0.174200
vt 0.885000 0.071400
vt 0.624500 0.139100
vt 0.799900 0.180500
vt 0.799900 0.139100
vt 0.624500 0.180500
vt 0.625900 0.213500
vt 0.702000 0.259400
vt 0.702000 0.213500
vt 0.625900 0.259400
vt 0.702000 0.206500
vt 0.658800 0.000500
vt 0.622100 0.999500
vt 0.658800 0.999500
vt 0.622100 0.000500
vt 0.625900 0.206500
vt 0.166900 0.261200
vt 0.166900 0.160400
vt 0.769400 0.078300
vt 0.714400 0.092900
vt 0.714400 0.078300
vt 0.769400 0.092900
vt 0.706600 0.118300
vt 0.692100 0.203500
vt 0.688200 0.301500
vt 0.692100 0.405100
vt 0.706600 0.492500
vt 0.714400 0.510000
vt 0.769400 0.510000
vt 0.714400 0.524600
vt 0.769400 0.510100
vt 0.714400 0.510100
vt 0.166900 0.168000
vt 0.166900 0.258000
s 1
usemtl SodaMachine01a
f 43/80/28 44/81/29 45/82/30
f 46/83/31 47/84/32 48/85/33
f 43/80/28 47/84/32 46/83/31
f 43/80/28 45/82/30 47/84/32
f 49/86/34 50/87/35 47/88/32
f 49/86/34 51/89/34 52/90/36
f 47/88/32 51/89/34 49/86/34
f 53/91/37 51/89/34 47/88/32
f 53/91/37 47/88/32 45/92/30
f 53/91/37 45/92/30 44/93/29
f 53/91/37 44/93/29 54/94/38
f 55/95/38 54/94/38 44/93/29
f 54/94/38 55/95/38 56/96/39
f 55/95/38 57/97/39 56/96/39
f 56/96/39 57/97/39 58/98/40
f 57/97/39 59/99/40 58/98/40
f 57/97/39 60/100/39 59/99/40
f 60/100/39 61/101/40 59/99/40
f 44/93/29 62/102/41 55/95/38
f 63/103/38 55/95/38 62/102/41
f 55/95/38 63/103/38 57/97/39
f 63/103/38 60/100/39 57/97/39
f 64/104/42 63/103/38 62/102/41
f 54/94/38 56/96/39 65/105/39
f 65/105/39 56/96/39 66/106/40
f 56/96/39 58/98/40 66/106/40
f 65/105/39 66/106/40 67/107/40
f 60/100/39 68/108/39 61/101/40
f 69/109/38 68/108/39 60/100/39
f 63/103/38 69/109/38 60/100/39
f 70/110/37 69/109/38 63/103/38
f 64/104/42 70/110/37 63/103/38
f 50/87/35 70/110/37 64/104/42
f 50/87/35 71/111/34 70/110/37
f 49/86/34 71/111/34 50/87/35
f 71/111/34 49/86/34 72/112/36
f 49/86/34 52/90/36 72/112/36
f 73/113/43 72/112/36 52/90/36
f 73/113/43 74/114/43 72/112/36
f 75/115/36 72/112/36 74/114/43
f 75/115/36 74/114/43 76/116/43
f 77/117/36 75/115/36 76/116/43
f 77/117/36 76/116/43 78/118/43
f 78/118/43 79/119/36 77/117/36
f 78/118/43 80/120/43 79/119/36
f 71/111/34 72/112/36 75/115/36
f 81/121/34 77/117/36 79/119/36
f 81/121/34 82/122/34 77/117/36
f 75/115/36 77/117/36 82/122/34
f 75/115/36 82/122/34 71/111/34
f 83/123/37 71/111/34 82/122/34
f 83/123/37 70/110/37 71/111/34
f 70/110/37 83/123/37 69/109/38
f 83/123/37 84/124/38 69/109/38
f 69/109/38 84/124/38 68/108/39
f 85/125/37 82/122/34 81/121/34
f 85/125/37 83/123/37 82/122/34
f 83/123/37 85/125/37 84/124/38
f 86/126/44 87/127/45 88/128/46
f 86/126/44 89/129/47 87/127/45
f 90/130/48 89/129/47 86/126/44
f 90/130/48 91/131/49 89/129/47
f 92/132/44 93/133/50 94/134/51
f 92/132/44 95/135/47 93/133/50
f 96/136/52 95/135/47 92/132/44
f 96/136/52 97/137/53 95/135/47
f 98/138/54 99/139/55 100/140/56
f 98/138/54 101/141/57 99/139/55
f 98/138/54 102/142/58 101/141/57
f 101/141/57 102/142/58 48/143/33
f 102/142/58 46/144/31 48/143/33
f 102/142/58 103/145/56 46/144/31
f 104/146/59 105/147/60 106/147/61
f 104/146/59 107/146/62 105/147/60
f 108/148/63 109/149/64 110/150/65
f 108/148/63 111/151/66 109/149/64
f 112/152/66 109/153/64 111/154/66
f 112/152/66 113/155/64 109/153/64
f 90/130/48 114/137/67 97/137/53
f 90/130/48 115/130/68 114/137/67
f 116/156/69 64/157/42 62/158/41
f 116/156/69 50/159/35 64/157/42
f 116/156/69 99/160/55 50/159/35
f 99/160/55 101/161/57 50/159/35
f 117/162/70 46/163/31 103/164/56
f 117/162/70 43/165/28 46/163/31
f 117/162/70 116/166/69 43/165/28
f 117/162/70 108/167/63 116/166/69
f 100/168/56 116/166/69 108/167/63
f 100/168/56 99/169/55 116/166/69
f 118/170/71 119/171/72 120/170/73
f 119/171/72 121/172/74 120/170/73
f 121/172/74 122/173/75 120/170/73
f 122/173/75 123/174/76 120/170/73
f 123/174/76 124/175/77 120/170/73
f 104/146/59 120/170/73 124/175/77
f 124/175/77 107/146/62 104/146/59
f 98/176/54 125/177/78 126/178/79
f 98/176/54 127/179/80 125/177/78
f 115/130/68 128/129/81 129/131/82
f 115/130/68 130/126/83 128/129/81
f 130/126/83 131/127/84 128/129/81
f 130/126/83 132/128/85 131/127/84
f 131/127/84 133/180/86 134/181/87
f 131/127/84 132/128/85 133/180/86
f 135/133/88 133/180/86 132/128/85
f 135/133/88 136/182/86 133/180/86
f 135/133/88 137/183/89 136/182/86
f 135/133/88 138/134/90 137/183/89
f 139/184/91 140/185/92 141/184/93
f 139/184/91 142/185/94 140/185/92
f 143/186/94 140/185/92 142/185/94
f 143/186/94 144/186/92 140/185/92
f 143/186/94 145/187/95 144/186/92
f 143/186/94 146/187/73 145/187/95
f 102/188/58 126/189/79 147/190/96
f 102/188/58 98/191/54 126/189/79
f 93/133/50 148/135/81 135/133/88
f 93/133/50 95/135/47 148/135/81
f 95/135/47 114/137/67 148/135/81
f 95/135/47 97/137/53 114/137/67
f 107/146/62 144/186/92 105/147/60
f 107/146/62 140/185/92 144/186/92
f 149/192/97 118/170/71 113/193/64
f 149/192/97 150/194/98 118/170/71
f 150/194/98 119/171/72 118/170/71
f 150/194/98 151/195/99 119/171/72
f 151/195/99 121/172/74 119/171/72
f 151/195/99 152/196/100 121/172/74
f 152/196/100 122/173/75 121/172/74
f 152/196/100 153/197/101 122/173/75
f 153/197/101 123/174/76 122/173/75
f 153/197/101 154/198/102 123/174/76
f 154/198/102 124/175/77 123/174/76
f 154/198/102 155/199/103 124/175/77
f 155/199/103 107/146/62 124/175/77
f 155/199/103 156/200/104 107/146/62
f 156/200/104 140/185/92 107/146/62
f 156/200/104 141/184/93 140/185/92
f 113/193/64 157/201/105 109/202/64
f 113/193/64 118/170/71 157/201/105
f 109/202/64 158/203/106 110/204/65
f 109/202/64 157/201/105 158/203/106
f 157/201/105 159/205/72 158/203/106
f 157/201/105 160/206/107 159/205/72
f 160/206/107 161/207/74 159/205/72
f 160/206/107 162/208/100 161/207/74
f 162/208/100 163/209/75 161/207/74
f 162/208/100 164/210/101 163/209/75
f 164/210/101 165/211/76 163/209/75
f 164/210/101 166/212/102 165/211/76
f 166/212/102 167/213/108 165/211/76
f 166/212/102 168/214/109 167/213/108
f 168/214/109 169/215/110 167/213/108
f 168/214/109 105/147/60 169/215/110
f 105/147/60 145/187/95 169/215/110
f 105/147/60 144/186/92 145/187/95
f 127/187/80 170/216/93 125/217/78
f 127/187/80 171/184/111 170/216/93
f 50/218/35 48/219/33 47/220/32
f 50/218/35 101/221/57 48/219/33
f 43/222/28 62/223/41 44/224/29
f 43/222/28 116/225/69 62/223/41
f 132/128/85 93/133/50 135/133/88
f 132/128/85 88/128/46 93/133/50
f 172/226/55 173/227/56 174/228/55
f 172/226/55 175/229/56 173/227/56
f 172/226/55 176/228/111 177/226/111
f 172/226/55 174/228/55 176/228/111
f 178/230/56 179/231/79 180/232/112
f 178/230/56 181/233/113 179/231/79
f 182/234/114 180/232/112 179/231/79
f 179/231/79 183/231/78 182/234/114
f 170/235/93 126/236/79 125/237/78
f 170/235/93 147/238/96 126/236/79
f 184/233/80 182/234/114 183/231/78
f 184/233/80 185/239/115 182/234/114
f 177/226/111 186/227/115 187/229/115
f 177/226/111 176/228/111 186/227/115
f 171/179/111 147/178/96 170/177/93
f 171/179/111 102/176/58 147/178/96
f 181/233/113 183/231/78 179/231/79
f 181/233/113 184/233/80 183/231/78
f 87/127/45 134/181/87 188/181/116
f 87/127/45 131/127/84 134/181/87
f 87/127/45 128/129/81 131/127/84
f 87/127/45 89/129/47 128/129/81
f 89/129/47 129/131/82 128/129/81
f 89/129/47 91/131/49 129/131/82
f 189/240/117 129/131/82 91/131/49
f 189/240/117 190/240/118 129/131/82
f 160/206/107 157/201/105 191/201/119
f 162/208/100 160/206/107 191/201/119
f 164/210/101 162/208/100 191/201/119
f 166/212/102 164/210/101 191/201/119
f 168/214/109 166/212/102 191/201/119
f 105/147/60 168/214/109 191/201/119
f 191/201/119 106/147/61 105/147/60
f 112/193/66 149/192/97 113/193/64
f 112/193/66 117/192/70 149/192/97
f 192/136/120 148/135/81 114/137/67
f 192/136/120 193/132/83 148/135/81
f 193/132/83 135/133/88 148/135/81
f 193/132/83 138/134/90 135/133/88
f 118/170/71 191/201/119 157/201/105
f 118/170/71 120/170/73 191/201/119
f 96/136/52 194/241/121 195/241/122
f 96/136/52 192/136/120 194/241/121
f 96/136/52 193/132/83 192/136/120
f 96/136/52 92/132/44 193/132/83
f 92/132/44 138/134/90 193/132/83
f 92/132/44 94/134/51 138/134/90
f 196/183/123 138/134/90 94/134/51
f 196/183/123 137/183/89 138/134/90
f 117/242/70 150/243/98 149/244/97
f 117/242/70 197/245/124 150/243/98
f 151/246/99 150/243/98 197/245/124
f 152/247/100 151/246/99 197/245/124
f 153/248/101 152/247/100 197/245/124
f 154/249/102 153/248/101 197/245/124
f 155/250/103 154/249/102 197/245/124
f 156/251/104 155/250/103 197/245/124
f 197/245/124 198/252/124 156/251/104
f 198/252/124 141/253/93 156/251/104
f 198/252/124 139/176/91 141/253/93
f 199/245/125 108/242/63 110/244/65
f 199/245/125 110/244/65 158/243/106
f 158/243/106 159/246/72 199/245/125
f 159/246/72 161/247/74 199/245/125
f 161/247/74 163/248/75 199/245/125
f 163/248/75 165/249/76 199/245/125
f 165/249/76 167/250/108 199/245/125
f 200/254/125 199/245/125 167/250/108
f 167/250/108 169/255/110 200/254/125
f 146/176/73 200/254/125 169/255/110
f 146/176/73 169/255/110 145/253/95
f 195/241/122 97/137/53 96/136/52
f 195/241/122 201/256/126 97/137/53
f 202/257/126 97/137/53 201/256/126
f 202/257/126 90/130/48 97/137/53
f 202/257/126 91/131/49 90/130/48
f 202/257/126 189/240/117 91/131/49
f 192/136/120 203/256/127 194/241/121
f 192/136/120 114/137/67 203/256/127
f 115/130/68 203/256/127 114/137/67
f 115/130/68 204/257/127 203/256/127
f 115/130/68 190/240/118 204/257/127
f 115/130/68 129/131/82 190/240/118
f 196/183/123 136/182/86 137/183/89
f 196/183/123 205/182/128 136/182/86
f 206/180/128 136/182/86 205/182/128
f 206/180/128 133/180/86 136/182/86
f 206/180/128 134/181/87 133/180/86
f 206/180/128 188/181/116 134/181/87
f 189/240/117 204/257/127 190/240/118
f 189/240/117 202/257/126 204/257/127
f 201/256/126 204/257/127 202/257/126
f 201/256/126 203/256/127 204/257/127
f 201/256/126 194/241/121 203/256/127
f 201/256/126 195/241/122 194/241/121
f 94/134/51 205/182/128 196/183/123
f 94/134/51 93/133/50 205/182/128
f 88/128/46 205/182/128 93/133/50
f 88/128/46 206/180/128 205/182/128
f 88/128/46 188/181/116 206/180/128
f 88/128/46 87/127/45 188/181/116
f 90/130/48 130/126/83 115/130/68
f 90/130/48 86/126/44 130/126/83
f 86/126/44 132/128/85 130/126/83
f 86/126/44 88/128/46 132/128/85
